<?xml version="1.0" encoding="UTF-8"?><svg id="a" xmlns="http://www.w3.org/2000/svg" viewBox="0 0 512 512"><path d="M219.63,347.65c1.44,1.93,4.96.69,7.21,1.03s4.63,2.21,4.25,4.65c-.54,1.59-5.76,1.16-7.11.82-.66-.16-1.17-3.8-3.34-3.01.23,6.38-8.02,2.87-11.99,3.5l3.03-1.3-.74-2.24c-1.1-.88-3.66-.58-4.53.57s-.19,2.35-.29,2.43c-2.22,1.77-12.65.24-6.49-4.23,2.89-2.1,3.85-.21,6.56-.95,3.18-.86-.62-3.75-.94-5.14-.33-1.46,0-3.14-.11-4.64-24.92,8.55-49.86,6.03-67.72-14.49-21.92-25.17-19.16-63.25,6.25-84.73,2.56-2.16,9.19-6.69,12.38-7.13,2.91-.41,4.16.9,6.62,1.88l-2.49-3.24c6.25-3.62,15.46-4.17,21.48.25.71-.76-2.57-3.28-3.49-3,.14-.91,2.58-.54,3.24-.49,2.61.22,13.06,2.64,14.46,4.48.19.25,1.13,3.84,1.3,4.51l2.26-1-.77-1.25c-.08-.37.51-.34.74-.24,2.12.86,11.8,11.01,10.75,12.99l-.99.24c6.38,5.19,5.9,17.89,3.51,25.01-5.44,16.24-23.81,26.38-39.94,18.41-22.39-11.07-12.79-44.06,9.46-39.45,8.44,1.75,14,13.58,6.22,19.27-3.86,2.82-10.38,2.09-11.25-3.24,1.24.2,1.76,1.64,3.29,1.74,4.43.28,5.25-6.89.31-8.84-5.17-2.03-10.37,1.64-11.36,6.82-3.89,20.37,28.56,23.85,35.4,2.41,5.41-16.97-6.87-31.97-23.89-33.37-28.54-2.35-51.23,25.63-45.26,53.16-2.08,1.49-4.37,1.41-3.96,4.81,6.11-2.83,6.56,4.49,8.72,8.52.69,1.28,5.2,7.26,4.73,7.93-3.99,1.11-2.82,7.9.53,9.04-1.45-2,.04-6.64,2.67-6.39.82.08,4.61,3.42,5.76,4.21.54.37,6.01,3.35,5.56,3.68-6.93-1.92-8.07,4.43-3.25,8,.34-1.35-.91-2.08-.8-3.75.22-3.41,3.58-2.12,5.76-2.26.74-.05,1.44-.76,2.03-.79.22,0,4.07.94,4.26,1.04,1.14.6-.98,1.46-1.44,2.08-.51.69-1.12,2.03-1.07,2.89.15,2.55,4.9,5.33,4.49,4.04-1.41-1.94-2.33-3.99-.46-5.97.2-.21,3.02-2.28,3.21-2.28h7.75l-5.16,3.12c-.92,1.92-.02,4.09,2.16,4.38-.1-1.11-.81-1.77-.26-2.98,1.2-2.64,11.14-5.69,14.1-6.92,1.53-.64,3.58-2.15,4.92-2.58,1.49-.48-.94,3.09,1.23,3.49-.41-3.31,2.46-4.18,4.27-5.98,9.99-9.95,18.37-20.77,32.9-24.07,5.67-1.29,11.06-1.13,16.81-.43.33,1.71-1.72.61-1.43,2.64.63,4.35,14.13,7.08,17.92,6.35-.85-3-.53-6.58-.52-9.76,0-1.18.55-2.19.49-3.41-.11-2.45-1.89-5.77-4.12-6.92-5.43-2.8-8.09,1.55-11.36.91-6.23-1.23-3.19-11.3,2.7-8.24,1.44.75,2.62,3.19,4.28,3.71,2.09.65,5.39.52,4.94-2.41-.51-3.32-4.27-1.87-6.55-2.98-4.5-2.19-1.68-8.46,2.04-7.55s3.19,10.77,9.97,7.05c1.23-2.45,1.65-5.44.5-8.01-.48-1.07-1.95-2.1-2.26-3.24-1.72-6.43,6.34-8.57,9.08-4.09,2.16,3.53-2.12,5.55-2.97,8.44-1.68,5.64-.17,14.39,7.44,9.94,3.63-2.13,2.45-7.44,7.19-7.82s7.84,6.13,3.39,8.91c-2.45,1.53-3.82.46-5.89.6-4.93.35-9.44,7.11-4,9.76,2.65,1.29,3.97-.57,6.33-.38,5.19.44,4.73,8.01-.52,8.33-3.52.21-3.67-2.54-5.71-4.06-1.77-1.32-6.48-3.05-6.5.44,0,.99,1.69,8.67,2.15,9.16.39.42,7.36,3.95,8.83,4.91,1.88,1.22,3.64,3.05,5.54,3.7l-1.5-1.75c2.36-.07,4.36,3.18,6.25,4.75.18-1.89-2.14-4.34-3.5-5.5-.97-.83-2.55-.62-2.25-1.99,2.58.27,5.18-.54,7.34-1.9,2.68-1.68,3.92-4.7,5.9-6.1,1.24-.88,6.49-2.26,6.68-2.56.27-.44-.04-1.78.17-2.57.86-3.21,6.86-4.8,8.84-6.65,1.29-1.21,1.96-3.15,3.55-4.2-2.65-.25-3.66,2.56-5.65,3.6-3.12,1.63-6.48.89-8.3,5.19-.48,1.14-.4,2.73-1.04,3.46-.78.88-4.21,1.68-5.48,2.51-1.85,1.21-3.16,3.91-5.02,5.48-2.48,2.1-5,2.87-8.22,3.21l-5.28-2.46c3.58-.25,8.49,2.14,10.99-1.5-.35-.28-3.62,1.46-3.99,0,1.01-.2,2.15-.67,2.96-1.29,8.07-6.15,6.5-10.65,11.11-17.37,4.08-5.95,12.59-6,17.09-9.4,2.83-2.14,2.99-6.69,8.11-7.38,5.85-.79,7.59,3.6,12.58,4.32,5.47.8,18.83-3.05,19.13,6.4.27,8.51-15.1,15.34-20.52,19.97-3.95,3.37-6.6,7.77-11.02,10.97-3.73,2.71-16.55,7.52-17.36,11.13-.35,1.55.09,3.26-.16,4.84-.84,5.4-3.89,9.82-6.3,14.55.09,1.25,8.7,5.37,10.22,5.62,7,1.15,2.45-4.38,3.88-7.38,2.36-2.75,7.06-1.78,6.79,2.25-.15,2.3-2.23,1.95-2.84,3.72-1.73,5.08,6.9,2.35,9.26.74s2.76-4.28,6.74-3.7c2.89.43,5.92,5.73,3.5,7.44-3.03,2.14-9.13-1.83-12.7.04.52,1.01,1.99.83,3.03,1.71.61.52,1.1,1.36,1.39,2.12.33,3.47-10.25,1.2-12.15.64l-90.99,1.03c-2.23-.1-4.18-3.01-6.49-3.01h-7.25ZM343.08,272.68c-4.29-5.57-12.45-7.3-17.5-1.75-3.51,3.86-2.95,3.83-7.65,6.84-.88.57-1.72,1.87-2.34,2.15-1.53.7-3.97.01-5.71.29-2.47.39-4.8,3.42-4.27,5.97,1.7.16,1.33-1.77,1.97-2.77,1.68-2.58,4.88-.24,7.29-1.18,1.64-.64,2.57-2.51,4.06-3.46,1.29-.82,3.1-1.04,4.16-1.84,2.35-1.77,2.57-6.09,7.09-7.4,5.52-1.59,8.28,1.27,12.91,3.16ZM342.58,270.19h10.5c.4-1.9-2.69-.67-3.77-1.02l-6.72,1.02ZM318.09,275.69c-.55.23-7.36,1.85-5.99,2.99,2.36.32,4.65-1.13,5.99-2.99ZM310.09,285.19c-1.42.45-4.26,1.52-5.26,2.48-1.44,1.37-1.06,3.64-2.74,5,2.82.37,2.71-2.76,3.76-3.98.87-1.01,3.68-1.64,4.24-3.5ZM245.12,293.68c-1.59-.34-2.96.58-2.96,2.25.01,4.03,12.63,9.44,16.45,9.24l-9.34-4.4c-2.9-1.84-4.81-3.26-4.15-7.09ZM238.62,295.18c-3.47,1.06-5.5-1.16-9.16,1.08-2.53,1.55-2.57,3.09-2.33,5.91.83-.21.83-1.46,1.49-2.25,1.52-1.81,3-2.82,5.4-3.14,1.46-.19,4.36,1.03,4.59-1.6ZM221.13,309.67c-1.9-4.46,1.24-5.56,3.01-8.25,1.24-1.89-2.12-.72-2.99.01-1.79,1.51-2.46,6.9-.02,8.23ZM240.62,301.68c-7.14-2.84-15.43,2.16-9.99,9.74l-.29-4.28c.97-2.73,3.75-5.09,6.69-5.36l3.6-.1ZM270.61,306.67c-1.74-4.07-7.63-.07-4.51,2.5.48-2.37,2.37-2.77,4.51-2.5ZM219.63,337.66c.75-3.59,4.53-7.06,3.8-11.01s-4.91-5.42-8.53-5.51c-.57-.01-1.89-.32-1.76.52l2,.26-1,1.24c17.5.71.92,14.94.97,20.76.01,1.2,4.24,1.72,5.28,1.73,25.43.28,50.97-.04,76.48.48,1.86.04,4.26.5,6.22.52.27-1.37-.35-.86-1.01-1.21-4.85-2.6-7.04-2.68-5.63-9.18.69-3.17,3.08-5.58,4.14-8.6-16.06,7.94-33.87,6.21-51.22,5-6.23-.43-12.55-2.11-18.93-1.44-.51.05-2.35.2-2.31.93,2.38.11,4.8-.17,7.18.07,4.8.47,10.25,2.55,14.55,2.98,2.95.29,7.75-3.75,8.29,2.64-3.6,2.32-7.36-.39-11.03-.18,3.89,3.67-5.12,4.17-6.38,2.88-.32-.33-.24-1.6-.88-2.37-.48-.58-3.33-1.93-3.73-1.51v2.5s-7,0-7,0l.5-1.5h-10ZM193.14,323.17c-2.17.14-4.79,1.54-4.49,3.99l3.36-2.38,1.13-1.61Z"/><path d="M123.68,348.65c.23-.74,2.58-.94,3.25-.99,20.88-1.57,43.95-2.06,64.94-2.53,3.2-.07,9.73-.49,12.51.02,1.75.32,1.7,2.51.43,2.92-1.09.35-2.91-.06-4.31.19-1.76.31-2.67,1.66-4.6,1.9-4.37.53-9.28-.48-13.49-.53-7.52-.1-15.04-.32-22.49-.5-12.1-.3-24.14-.47-36.25-.48Z"/><path d="M264.61,298.69l-.24.98c-4.07-.92-10.3-.77-11.25-5.99,4.3.49,7.66,3.36,11.49,5Z"/><path d="M356.07,348.16l-1.74.49c-4.87-.87-11.45,1.35-16,.5-1.48-.28-1.31-1.16-1.25-2.5l18.99,1.5Z"/><path d="M225.08,343.61c-2.94,1.87-8.66,1.06-6.58-3.34s7.78,1.62,6.58,3.34Z"/><path d="M59.08,366.2c1.31.09,3.37,1.07,5.14.55,1.67,1.24-5.91.23-6.33.23-1.84-.03-3.72.32-5.58.31-.46,1.5,1.98,1.68,2.98,1.67,4.84-.03,9.79-.18,14.34-.92,11.73-1.92,25.37.26,37.61.38,9.62.09,19.63-.83,29.21-.63,3.91.08,7.69.52,11.64.59l-.09,1.53-2.08,1.16,7.04.54-2.16-1.08c.37-3.05,2.65-1.17,3.48-1.13.64.02,1.37-.5,2.14-.44,1.55.13,3.16.88,4.9.45.26,2.56,2.01,1.54,3.55,3.01l-7.57,1.34c3.69.39,7.39-.2,11.09,0,5.03.27,10.97,1.36,16.23,1.63,1.02.05,2.15-.75,3.16-.56.38.07.31.99.72,1.09,1.15.28,2.88-.12,4.23.01,7.07.7,12.53.83,19.36.42.59-.04,1.2-.78,1.73-.76.49.02,1.87,1.35,2.99.88l-4.86,1.35,2.42,2.45.82-.29c.23-1.62,2.04-1.45,2.57-2,.49-.51.43-1.79.97-2.55,1.77-2.49,7.71-1.7,10.25-2.69,1.14-.44,2.01-1.76,2.89-1.95,2.78-.6,8.48-.55,11.34-1.72,1.36-.55,1.84-1.76,2.06-1.79,3.2-.35,4.83-.28,7.93-.16,2.51.1,4.91-1.11,6.75-1.99,8.84-4.22,19.2-3.42,28.81-4.89l-.55,1.07c2.49.7,5.43.11,7.66.32,9.05.87,18.42,2.63,26.42,5.38.42.14.81,1.03,1.47,1.23,1.6.48,4.28-.11,6.11.65l-1.62.54c-.22.84.63.32.9.72s.1,1.14.28,1.31c1.05.97,7.59-.15,6.41,2.81l5.39,1.12c-.34,1.52-4.13-.24-4.32,0l.05,1.56c.33.41,3.82.98,4.45,1.25.87.37.74,1.42,1.25,1.51,1,.17,4.62-.75,6.15,0l-1.62,2.16,2.15-1.08.54,1.08c-.09-3.62,2.66-.93,2.17,1.09,3.57-2.63,6.68,1.74,8.46,2.01,1.19.18,5.34-.42,6.91-.39.38,0,.33.84.71,1.07,2.45,1.43,3.05.21,5.23.58,2.37.4,5.39,1.76,7.78,2.02.72.08,1.68-.5,1.74-.43.12.15-.29,1.27.32,1.69,1.89,1.32,6.06.34,8.08.97,1.1.34.92,1.42,2.21,1.5,5.65.36,11.22.45,16.8.38,12.76-.15,25.49,2.35,37.86,1.47.8-.06,1.58.47,2.4.26,1.39-.36,1.62-2.1,2.47-2.35.39-.12,1.41.28,2.26.09,5.34-1.18,10.73-2.07,16.14-2.85,2.02-.29,4.13-.38,6.16-.33l-8.68-2.17.02-1.89-2.95,1.53c-10.64-1.79-21.45-2.25-32.23-2.08.85-1.65,3.45-1.98,4.69-2.88.39-.28.64-1.15,1.28-1.68,1.82-1.52,3.31-1.27,3.73-4.39l3.28-.23-1.62,1.61c4.28-1.31,6.9-.21,10.81,1.63l-.54-2.16,1.63-.27-1.62-1.35c1.2-.34,2.54.51,3.55.47,4.57-.21,11.55-1.14,15.78-3.05l5.01-.66c-4.39-.48-8.81-.74-13.21-1.13-3.73-.33-8.76-1.16-12.47-1.31-6.19-.26-12.52.9-18.69-.26-.28,1.62.43.85,1.27,1.14,2.05.69,4.89,1.06,6.7,1.99,2.25,1.15-.93,1.49-1.37,1.83-.13.1.52,1.17-.38,1.52l-1.89-1.07c0,6.99-5.36,10.44-11.91,8.66l.55,1.07-23.81-1.62,2.7-1.08c-.58-1.7-1.33-2.5-3.23-2.15v1.62s-1.64-.29-1.64-.29v1.36s-3.24,0-3.24,0l.54-1.61-2.16-1.08,2.7-.54c-1.78-.66-4.44-.23-5.41-2.17.76-.1,4.64.92,4.87.81,1.01-.45,2.22-1.81,3.1-2.44,1.03-.74,2.15.02,1.39-1.51l.94-.43-.55-1.3c6.27-2.18,13.77-.75,20.15-2.32.54-.13,1.63-.15,1.5-.92l-24.89-2.18,1.08-1.07c-2.25-.8-1.93,1.32-2.97,1.08-.46-1.93-2.61-.51-4.26-.62-20.18-1.44-39.42-7.85-59.02-12.09-17.53-3.79-31.96-5.39-49.79-5.12-6.34.1-12.63.37-18.95.55l-.56-1.66-.89,2.09-2.08.08.08-2.09c1.53.16,2.05-1.55,2.18-1.61.54-.24,1.53.52,2.33.46,15.02-1.07,37.23-1.86,51.89.59,17.31,2.89,34.22,6.36,51.49,8.87,8.61,1.25,18.77,2.3,27.46,4.62.56.15.15,1.46,1.73,1.07.25-.06,0-1,1.05-1.13,3.03-.38,7.58.72,10.28.59.32-.02.25-.98.67-1.09,2.34-.6,14.88,1.28,18.31,1.61,5.77.55,12.12.85,17.84,1.63,5.83.8,10.95,1.56,16.23,4.33l.28-1.63c2.31,1.55,3.91-.46,5.91-.84,3.89-.74,7.3.1,10-.24.38-.05,2.87-1.01,3.02-1.61l-84.95-6.5c-.28-.77,2.15-.45,1.08-1.61-.63-.68-5.39.58-6.74.56-8.55-.08-22.48-2.89-31.25-4.51-6.27-1.15-12.41-3.46-18.82-3.64l2.17-.81-2.17-.81c1.16,0,2.34-.07,3.51,0,3.24.2,6,1.29,8.93,1.84,7.34,1.38,14.67,3.3,22.19,3.02.47,1.94-.64,1.11-1.08,2.15h2.7s-.54-1.61-.54-1.61c2.76.38,5.66,1.36,8.45,1.56,2.21.16,5.02-1.07,5.31-1.07,3.45.02,8.32,1.32,11.95,1.66,1.52.15,3.08-.08,4.59.01l-2.7.54v.53s6.49.54,6.49.54l-2.7-1.07c4.27-.21,8.45.54,12.68,1.11,14.48,1.94,29.29,3.87,43.9,5.35l1.01-1.1c5.29.11,10.89.52,16.25.61,5.86.11,11.75-.12,17.61-.03v3.25s-6.67.09-6.67.09l-.91,1.53h7.58v8.11c-.4.14-.65-.54-.81-.54h-7.85c-.13.74.96.83,1.49.94,2.13.45,5.08.92,7.17.68v15.69l-2.7-1.62c.2,1.91-3.49.94-5.16,1.08-.72.06-1.64-.39-1.35.81.03.13,1.79,1.87,1.92,1.9.58.12,1.17-.86,1.61-.89.49-.04,1.14.75,1.67.74,1.27-.02,2.62-.67,4-.38l-2.17,1.35,2.17,1.08v24.07c-.89-.07-.74-1.34-1.39-2.13-3.81-4.63-7.08-1.27-11.02,1.3-.16,2.13,6.14,3.09,7.67,3.58.4.13.15.32,1.63.71,1.15.3,1.57,1.38,3.11.32v24.88c-1.42-1.17-2.28-2.02-4.33-1.62l1.08,1.62c-.56-.41-4.43-.54-3.78.8.72,1.47,2.97.13,3.24,1.35-3.3.31-7.9-1.33-9.19,2.7.71.34,2.79.35,3.13.66s-.03,1.62.99,1.99c.89.32,3.62.11,4.74,0,1-.1,1.99-.58,3.04-.49l1.08-3.77v40.03c-2.78-.57-5.71.32-8.39.53-1.52.12-3.77-.02-5.37.1-.88.07-6.27.4-6.27.72l2.17.27-.8,1.63c4.76-1.42,10.44.1,15.18-.51.49-.06,2.16-1.85,3.48-1.66v9.74l-4.07-2.22-.71.17c-.74,2.78-3.01.96-4.63,1.14-11.88,1.31-23.89.78-35.76.94l-73.88-.03c-.13-.94,1.23-.51,1.89-.54,8.49-.35,16.95-.87,25.44-1.63,2.05-.18,4.97-1.21,6.49-1.35,7.45-.71,15.09-.43,22.68-1.41.86-.11,2.95-.18,2.49-1.56-10.43-.52-20.77,1.37-31.11,2.16-21.82,1.67-42.49,2.68-64.41,2.73-.99,0-1.9-.51-2.72-.5s-2.86,1.33-4.56.48l4.33,1.62h-43.83l42.41-6.01,7.17-1.49c38.39-3.99,76.43-10.42,114.92-13.6l-5.7-.56c-39.27,3.94-78.08,8.65-117.11,13.82-19.54,2.59-37.6,5.28-57.04,6.27-3.4.17-7.7,2.72-10.35.49l-1.03,1.13-18.45-.05-1.89-.54c.96-.01,1.95.09,2.91-.07,11.66-1.96,23.44-3.9,35.07-6.05,32.22-5.96,64.95-12.11,96.9-18.89,10.98-2.33,21.83-5.14,32.72-7.86,1.87-.61.95-2.75,1.98-3.92,2.58-2.91,8.33-2.51,11.64-1.29,1.39.51,1.97,2.23,3.84,1.3l-1.08,1.61,4.33-.54c.46-.6-2.21-.57-.54-1.35s6.82-1.88,8.97-2.39c6.25-1.48,12.84-1.88,18.84-3.34,3.19-.78,7.02-3.44,10.6-2.65.04-.94.27-2.92-.85-3.18-2.58,1.61-7.62-.53-9.6-.08-.43.1-.35,1.1-.67,1.11-5.99.31-13.45-.89-19.47-.57-1.91.1-4.25,1.03-5.95,1.01-1.86-.02-5.64-1.15-7.53-1.27-1.44-.09-4.78,0-4.63,1.9l-1.6-1.08c.05,2.07-1.69.94-2.36,1.12-.4.1-.3.93-.73,1.03-2.13.52-6.03.1-7.92.56-.73.18.33.5-2.7.73s-4.6.86-6.7,1.4c-1.37.35-10.04,1.3-10.44,1.65l.51,1.82-3.23,1.43.55,1.61-8.11.55,5.95,1.08-1.35.53-.29,1.63c-1.36-1.07-.86-2.23-3.18-1.18l-.34-.98h-.8s-.31,1.11-.31,1.11c-2.13-1.26-3.93.25-5.99.47-3.72.41-3.84.06-7.19,1.4-2.55,1.03-5.23,1.82-7.61,3.23,1.08,1.55,1.91.06,3.27,0,.44-.02,3.24.06,3.21.8l-8.66,1.35-1.08,2.44-.56-1.6-3.76.52v-1.62s1.08-.53,1.08-.53l-3.78.81,1.9.8-.56,1.09-1.63-.45c-.95,2.03-3.57,1.24-5.36,1.56-1.54.28-3.32,2.34-5.17.23l3.24-.27c-.17-2.09-7.77-.28-8.1.05l.53,2.1c-2.58.1-5.09,1.46-7.44,2.05-12.33,3.08-25.3,4.18-37.65,6.81-2.77.59-5.07,1.51-8.6,2.14-6.85,1.22-32.2,6.04-36.27,4.35-.87-.36-1.68-.19-2.57-.18l1.62.54c-2.83,2.46-7.86,1.21-11.61,1.65-25.79,2.98-48.09-1.39-73.62-2.73-17.36-.91-34.71-.76-51.96-1.06-1.92-.03-5.16-1.79-5.92.52-1.37-1.97-3.03-.51-4.85-.51-18.05,0-36.19-1.35-54.14-.57-2.75.12-6.53-.27-9.11.2-3.03.55-5.38,2.08-9.29,2.01-4.89-.09-9.63-3.91-14.87-2.2l.03-2.67,1.59-.3-1.63-.27v-1.62c2.54,1.17,2.31-.57-.03-.84l.04-4.03c1.04.17.63,1.65,1.99,2.06,5.22,1.6,13.08-2.11,18.28-2.32,3.23-.13,7.14.87,10.86.82,32.12-.42,64.19-1.48,96.32-1.13,30.25.33,60.71,4.25,90.86,3.79,43.38-.66,83.65-11.03,123.65-26.77,9.64-3.79,23.11-11.55,25.74-22.43.68-2.82-1.41-5.58-3.09-7.77-8.62-11.33-38.23-22.92-51.67-30.54-6.27-3.55-11.92-8.07-18.29-11.46-1.05-.56-4.64-1.35-4.97-2.27-.21-.58.36-2.39-.86-3.53-.92-.86-2.93.03-2.57-1.76,3.42-.17,12.24,1.66,14.61,4.08,1.38,1.42,3.31,2.66,3.66,3.05.1.12-.37.82.1,1.26,1.06,1,3.41-.04,4.1,2.42l2.43-1.62.35,1.65c5.98.42,11.25,3.18,16.85,4.7,4.86,1.32,11.06,2.03,15.91,3.57,8,2.53,15.07,5.24,23.57,7.27,6.28,1.51,15.1,1.78,20.89,3.4.4.11.29.96.69,1.03.37.06,6.68-.46,7.45-.54,5.08-.56,6.22-.94,11.46-.02.81.14,3.76.07,3.91.19.57.44.19,1.78,2,1.49.26-.2.23-.87.39-.96.43-.23,8.28.97,9.65,1.17,8.39,1.26,22.15,4.08,29.98,2.45,1.12-.23,2.11-1.43,3.55-1.06,1.75-1.76-5.12-3.29-6.38-3.62-23.56-6.25-50.05-5.48-73.56-10.84-11.06-2.52-21.16-4.46-31.96-8.19-2.18-.75-3.74-1.04-6.06-1.14l.55-1.07c-4.04.52-6.04-3.3-9.74-2.71l1.62-1.61c-4.16,1.07-6.09-.83-9.73-2.17l3.78-1.07c-1.68.51-2.95-.73-4.18-.96-8.51-1.58-17.43-6.72-26.64-9.07-23.14-5.91-40.63-2.93-62.66,3.48-8.64,2.51-17.02,6.39-26.09,6.55l.54,1.61c-3.73-.75-6.13,1.94-9.74.54l.28-1.62c-.7,1.5-2.85,1.18-2.99,1.29-.53.39-.42,1.72-1.07,2.22-2.15,1.65-21.73.65-25.69.27-6.72-.64-13.39-2.4-20.09-3.17-46.02-5.34-92.22-5.97-138.48-7.08-3.09-.07-6.11-1.27-9.44-.03v-11.89s1.35,1.63,1.35,1.63l.54-1.63c.55.32.58,1.32,1.08,1.52,1.88.73,9.54-.99,11.9-1.02,3.96-.05,8.87.92,12.96.6,1.36-.11,3.55-.48,4.63-1.37-2.39-.93-5.07.19-7.39.11-1.15-.04-2.12-.82-3.2-.88-2.19-.12-5,.36-7.43-.13-1.76-.52-.54-2.94.44-3.68,3.05,3.28,6.67-.89,10.28,1.64l.58-1.14c35.05,2.62,71.23-2.03,106.59.54,4.03.29,8.11.94,12.15,1.1l.26,2.17c1.61-2.52,2.78-1.05,4.85-1.06,21.05-.07,39.97-.27,61.26-2.14,6.68-.59,12.14-.31,18.16-2.91,4.77-2.06,12.32-.81,17.48-2.07l1.05,1.14c1.13-1.61,4.52-1.79,6.52-1.96,12.3-1.05,26.74-.95,39.47.34,2.63.27,9.98,1.18,12.04,2.02.78.32,1.41,1.2,2.03,1.76l.57-1.11c3.32,1.29,8.15.02,9.98,3.55l-1.63.27.59,1.6c1.89-.99,4.46,1.22,5.06-1.03l4.1,1.05-.54,2.15,3.64.99,2.63-2.59c1.81.85,2.28,2.46,4.54,1.06l.51,1.94,4.91.22.26-1.07,1.9,1.89-1.55.35-.08,1.54c-2.23.18-.77-2.87-2.98-2.18l-.54,1.1-.27-1.63-.54,1.62-1.63,1.08,4.33.55-.41.97,2.3,1.74-.26-1.62h2.16s-1.08-2.16-1.08-2.16l5.41.54c.18.86-1.58.72-1.61,1.34-.08,1.24,1.54,1.54,2.62,1.43l.57,2.03-1.56.87,1.07,1.35c-1.47.09-2.86-.4-4.19-.92-4.89-1.91-11.24-3.37-16.51-6.12-3.46-1.81-8.24-2.72-12.44-3.81-34.76-9.02-55.01-6.18-90.21.33-28.1,5.19-45.35,5.88-73.87,4.03-42.57-2.76-87.09-2.75-129.9-3.21-6.48-.07-14.09-1.33-20.57-.59-4.63.53.78,3.52.84,4.63-1.61.52-.49,2.41-2.71,1.89l1.35,2.16,1.13-1.58,1.52-.06c.77,2.34,6.23-.04,4.92-2.16h-5.67c.37-2.81,2.51-3.23,5-3.11,1.85.09,2.44-.1,3.98-.07,2.4.04,4.83.64,7.26.49-.29.48-.05,1.74-.11,1.91-.2.51-1.19-.11-.97.79,2.34.59,1.24-1.12,2.16-1.89,1.34-1.13,4.29.06,5.96-.26l-5.95,1.08.99.6-.46,1.02h3.25s-.56,2.15-.56,2.15l-3.76-1.07-.54,1.62c4,2.14,4.44-1.03,5.78-1.52,3.37-1.24,6.83.18,9.71-1.4.14-.08,1.33-1.06,1.28-1.4-1.53-.19-4.07.72-4.87-1.09,4,.2,8.2-.28,12.17,0ZM490.35,476c1.53.39,6.13,0,8.12,0,.8,0,5.86-4.02,2.14-3.82-3.21.18-7.62,3.15-11.07,2.74-.02.34.63,1.03.81,1.08ZM479.79,490.61c-2.97.08-5.97-.13-8.95-.03-6.5.21-13.09,1.2-19.47,1.64-2.09.15-4.5-.25-6.5,0-.98.13-.88-.19-.8,1.08.77.05,1.67-.17,2.41.03,8.99,2.39,20.42-1.92,29.2-1.1l4.1-1.62Z"/><path d="M220.06,481.95l4.87-.81c-1.37-1.46-3.65-.62-5.41-.82l2.7-.54v-.53c-2.25-1.44-4.59-.71-6.74-1.11-4.53-.85-9.45-2.18-14.19-2.63-3.47-.33-8.5.42-11.75-.06-.44-.07.48-.42-2.27-.58-2.12-.13-4.86-.7-6.96-.5s-3.86,1.53-4.93,1.64c-1.28.12-2.11-.98-3.23-1.07-1.21-.09-3.04.74-4.5.74-6.31.02-12.41-.03-18.75.21-1.41.05-3.31-1.34-4.6.38l1.35.81c-2.04-.22-4.51.32-6.46-.03-1.27-.23-2.28-1.48-3.86-1.55-1.49-.07-3.26,1.11-4.24,1.05-.3-.02-.26-.86-.74-1.06-.98-.4-9.27-.01-10.67.23-1.04.18-2.33,1.59-3.73,1.39-.38-.06-.3-.92-.6-1.03s-2.71.97-3.76,1.04c-7.03.44-14.33-1.09-21.41-.59l1.89-1.08h-5.68s2.43.54,2.43.54c.88.73-.67.6-1.1.57-1.93-.12-3.03-.82-4.91-.88-12.34-.42-25.75,1.04-37.76,1.95-.4.03-.08.97-1.1,1.11-2.03.27-4.67-.3-6.8-.04l.8,1.1c-3.9-1.47-9.25.48-12.75-.25-1.02-.21-1.01-1.22-1.17-1.29-.52-.25-2.67,1.35-1.49-1.72-.78.34-1.57.66-2.45.61-.7-.04-1.07-1.74-3.5-.61l.33-1.64-1.99-.85c.32-1.6-.67-7.11.85-7.78,1.36,6.88,9.75,3.52,14.66,2.76l4.01-3.29c-2.16-.98-3.88-.03-5.69,0-4.63.05-9.2-.18-13.8-.54.39-1.62-.31-2.23,1.64-2.97l-1.67-.57.04-6.73c1.3.46.88,2.82,2.28,3.42,2.35,1.02,4.34-.73,6.67.3,3.21-.99,7.14-2.92,10.32-3.66s5.27-.9,8.17-1.66c.97-.26,2.13.1,3.3-.39.84-.35.59-1.22.66-1.26.29-.18.88.83,1.46.96,3.48.74,7.31-1.19,10.71-1.5,22.38-2.02,44.69.41,67.03-2.24,2.75-.33,8.7-.94,11.01-1.97,1.62-.72,4.19-4.63,4.89-6.26-2.29-4.23-5.78-7.61-9.48-10.61-1.93-1.57-6.22-4.82-8.28-6.21-5.7-3.85-16.44-4.45-23.36-5.86-17.34-3.54-34.59-7.85-52.36-8.51l1.62-1.07c-1.78.06-3.31.6-5.15.58-4.53-.06-8.77-2.53-13.25-3.56-3.22-.74-13.21-2.85-15.03.39-.64,1.14.49,4.06-1.2,4.75l-.05-15.45,1.14-1.04-1.1-.62c.25-2.19-.31-4.89-.02-6.98.19-1.31,1.12-2.07,1.17-3.23.04-.98-1.02-.69-1.13-1.16-.39-1.67.25-4.3,0-6.12,1.61,1,3.02,2.28,2.7,4.33,2.32-.8,5.15.12,7.3,1.09l.28-1.63c2.99,2.48,4.86.3,7.24-.1,11.22-1.89,24.94.85,36.29-1.01,2.92-.48,4.12-2.8,8.65-2.1,2.4.37,4.19,2.85,6.01,3.19,3.22.59,7.55.22,10.79.57,12.87,1.4,25.08,1.82,37.88,2.7,15.75,1.09,28.43,5.69,43.54,8.95,3.51.76,7.81,2.59,11.11,2.95,3.06.33,17.95.62,20.48,0,1.45-.36.25-.44,3.32-.56,3.45-.13,12.56-4.02,15.86-5.34,1.04-.41,2.97-.23,3.75-.75s.82-2.23,3.4-1.46l-.63,3.7c-4.16.95-6.03,5.53-8.82,8.22-8.54,8.22-17.21,7.54-26.42,12-2.46,1.19-1.24,2.78-5.26.97.74,2.09,4.29,1.96,6.1,1.49,3.59-.94,7.57-3.5,10.85-4.84,6.18-2.53,11.43-3.82,16.87-8.02,1.64-1.27,5.75-5.92,7.05-6.48.9-.38,1.1.73.8,1.07-.07.08-.91.09-1.3.58-2.06,2.61-3.67,5.62-6.27,7.83-.26,1.92,3.51-1.9,3.8-2.16.66-.62.14-1.79,1.61-1.36l-.28,2.7c2.96-4.43,6.68-8.59,11.64-10.81-4.19,5.37-9.68,9.61-10.82,16.76,2.37-3.14,3.89-7.19,7.3-9.73.41-.08.35.52.26.8-.72,2.31-3,5.23-3.93,7.97-2.61,7.68-1.23,12.73-5.24,20.3-4.51,8.51,2.29,14.82,9.99,17.46,3.06,1.05,6.13,1.36,9.21,2.16.75.19,1.68-.01,1.89,1.08-9.76,1.61-20.96-2.1-27.05-10l1.08-1.07c-4.17-1.12-4.11-8.08-2.56-11.23.87-1.77,3.43-3.38,4.71-5.02,2.48-3.19,4.5-8.12,4.88-12.15-1.44-.3-.93.37-1.34,1.06-1.14,1.9-.88,3.23-1.61,4.87-2.37,5.27-9.41,8.17-10.53,15.46-3.67,23.75,36.23,26.19,51.27,20.96,1.29-.45,1.86-1.33,3.12-1.75,2.64-.88,6.27-.34,8.9-1.38,2.02-.79,6.85-5.79,7.34-7.82.14-.6-.97-1.27-.77-2.86.16-1.3,1.42-2.75,1.83-4.19.59-2.08,2.21-12.43,2.99-12.98.45-.32,1.98.66,2.85.45.75-.18,1.47-1.53,1.73-1.53,2.66-.02,2.03,9.74,2.96,11.48.53.97,2.24.61,2.65,1.85.49,1.48-.68,3.34-.99,4.83-.12.59.51,1.37.37,1.74-.08.2-1.85,3.38-2,3.53-.66.66-1.34,1.28-2.04,1.96-1.66,1.61-3.92,1.86-3.44,4.31l-3.75.59,1.08.8c-2.12,2.59-5.31,2.64-7.7,3.66-8.11,3.46-17.12,7.34-26.08,5.78l-.61,1.13c-3.91-1.86-8.03-1.14-11.86-1.65-9.5-1.25-21.51-4.31-29.44-9.52-.57-.37-.73-1.28-1.51-1.73-.91-.53-2.19-.3-3.13-1.19-.8-.76-1.59-3.41-2.68-4.36-1.76-5.98.45-11.06,1.29-16.93l1.65-.34-1.05-2.37-1.11-.33c-1.22,2.2-2.79,4.8-4.35,6.75-3.57,4.46-10.56,9.04-9.07,15.58.99,4.37,10.51,8.73,14.5,10.38,27.85,11.52,55.63,12.7,83.85,2.16,15.96-5.96,25.02-14.93,13.66-31.49-2.97-4.32-5.67-4.77-5.73-11.1,0-.71-.48-1.19.73-1.49-.09,2.52.48,2.08,2.45,3.25l.34-.95c2.07,1.2,3.08-1.06,4.54-1.21,1.31-.13,4.64,1.51,5.87,2.25s7.34,5.56,8.26,6.59c.28.31,2.87,4.67,2.95,4.95.26.93.48,6.04-.41,6.25-4.49,1.09-2.28-4.63-5.6-5.98-.17,1.08.91,1.42,1.08,2.46.24,1.45.22,3.06.49,4.86.14.95-1.54,8.18-2.12,9.05-.46.69-1.52.41-2.2,1.17-1.47,1.64-2.55,4.76-4.91,6.46-3.16,2.28-7.4,2.91-10.72,4.43-.78.36-1.14,1.48-2.04,1.75-1.33.4-3.09-.04-4.5.11l.55,1.07c-2.25-.72-2.06,1-3.08,1.51-12.81,6.46-35.11,9.92-49.29,7.83-6.77-1-13.9-2.1-20.53-3.7-1.44-.35-3.5-.49-5.02-.77l1.62-1.07c-3.92.32-7.59-1.08-11.38-1.93-2.3-.52-5.15-.67-7.45-1.68-1.13-.5-.3-1.68-.95-1.84-5.93.6-10.8-4.19-16.47-4.84l1.08-1.07-3.78-1.9c.69-.8,2.12.31,2.91.14.95-.2,2.12-1.61.46-1.76l.42-.8c-1.72.53-1.67-1.06-2.17-1.39-.94-.63-2,1.75-1.61-1.87h-2.17s2.16-1.61,2.16-1.61l-2.16-1.08,5.41-.55-.55-2.15h4.33s-1.09-3.25-1.09-3.25c3.44.84,2.29-2.45,2.89-3.13s4.06-2.49,4.69-3.64l-2.15-1.62,3.24-2.43c-7.7,3.72-13.6,5.64-22.39,4.8-14.49-1.4-22.4-7.17-34.24-13.91-21.32-12.14-56.02-13.39-80.47-16.38-11.18-1.37-22.95-4.14-34.16-4.8-3.46-.2-12.15-1.31-11.06,3.73,2.98,1.46,6.5-.05,9.44,0,3.57.07,7.28.75,10.83,1.12,19.48,2.03,38.77,3.89,57.86,7.07.6.1,5.87,2,6.51,2.28.39.17.57,1.39,1.91.94l-1.62,1.07c3.43.65,7.07.15,10.52.58,2.35.29,5.4,1.61,7.18,2.11,1.22.34,7.34.54,7.73,1.12l-1.62,2.69,3.78.54-.8-1.09c1.97.28,3.1.35,4.38,1.86.6.71-.45,1.95,2.37,1.4l-2.16,1.07,3.81.26-.02,1.91c1.4-.17,2.53-.82,4.04-.54.18.03,3.13,1.49,3.28,1.6,1.18.96,1.21,2.44,1.69,2.78.57.4,2.14.33,2.31.54.35.43-.28,2.08.14,2.58.57.68,8.21,2.52,9.65,2.25.02.6-2.2,1.34-2.55,1.4-2.02.34-4.47-.7-6.65.23l.54.82,10.98.33c1.74,1.62,3.23,2.81,5.8,2.64-.63,1.85-4.8-1.54-4.33,1.07l10.82,1.63c.05.79-2.48.81-2.98.79-1.59-.05-3.48-1.67-3.5.83l11.35,1.09c.13.94-1.28.54-1.92.54-1.09,0-2.17-.24-3.23-.44l-1.12,1.98-4.56-.46.55,1.07-1.64.28c-.36.97,3.2,1.9,3.9,2.05,2.64.55,6.13-.1,8.01,2-2.83.79-6.71.53-9.37,1.09-.19.04-1.48,2.26-3.07,1.62l2.7.54-1.62.54,1.08,1.07c-1.82-.61-2.63,1.21-3.62,1.52-2.53.78-5.73-.7-8.27.12.03.77,2.45.83,3.06.87.82.05,1.67-.45,2.53-.3l3.6,1.04c-7.1,1.36-14.25-.87-21.37-.77-3.52.05-6.99,1.11-10.55.78l2.16,1.07c-4.42,1.57-8.67-.05-12.71-.04-4.32,0-7.92.16-12.47.07-1.93-.03-3.71-.78-5.66-.56l.55,1.07c-1.71-.54-3.28.65-4.6.79-3.8.39-8.23-.73-12.17-.24l5.23.99.99.63c-1.86-.34-6.56.59-7.86-.28-.4-.27-.37-1.33-.84-1.37-.4-.03-1.21.57-2.06.52-1.59-.09-3.08-1.09-4.89,0l-.31,1.67,7.03-.81c-3.54,3.22-8.2-1.06-9.2,5.68h7.85c.35,0,2.4-.5,1.89-1.62l-2.7-1.08c3.13.87,8.12-1.69,10.28.53l-7.03.55c.37.96,3.21.61,4.08.56,24.54-1.31,49.5-.75,74.13-1.13,11.7-.18,22.71-1.11,34.6.03,18.59,1.79,38.23,7.8,56.82,7.57,17.46-.22,56.72-9.16,70.35-20.01,20.05-15.96,10.83-32.76-9.48-41.37-1.61-.68-5.42-1.41-6.46-2.2-1.21-.92-4.18-7.67-3.27-8.9,1.68.1,4.62.33,6.12,0,.41-.09.33-.96.74-1.06,2.98-.74,13.78,5.81,17.34,6.89.93.28,1.91.12,2.85.13l-.54,2.16c2.53-.63,2.66,2.33,5.42,2.17l-.55,1.07c1.97-.86,4.61,1.61,5.68,1.65.34.01,0-1.1,1.06-1.16,3.36-.2,7.9,3.92,10.75,5.57,2.46,1.43,7.8,3.65,9.53,5.62,1.17,1.33.96,2.62,1.64,3.64.41.62,1.47.78,2.15,1.82.97,1.49.87,5.37-.03,6.83-.7,1.13-2.47,1.08-1.55,2.55h-4.87c1.8-2.42-.74-3.95,3.78-4.04l-.55-3.49-3.51-1.1-.58,1.12.84,3.15-3.7.66-.62,4.25h-4.32s2.16,1.35,2.16,1.35c-2.41,1.68-2.49,5.66-5.95,5.69l.53,1.58c-2.27.35-3.83,2.82-5.28,3.81-1.34.92-4.64,1.56-4.87,1.72-.25.17-.6,1.42-1.46,2.09-.99.77-2.62,1.04-3.62,1.67-19.81,12.57-48.43,18.73-71.36,21.27-10.7,1.18-20.92,1.46-32.16,1.37-1.31-.01-2.66-.78-4.07-.51,1.34,2.09,4.92.69,7.03,1.08.13.94-1.23.51-1.89.54-2.25.09-4.52-.07-6.77,0l2.16,1.08h-7.58ZM186.51,411.1c-11.35-2.78-20.56-10.09-31.63-13.55-17.07-5.33-40.47-7.49-58.44-8.12-4.77-.17-10.39-.41-15.08.23-1.71.23-3.17,1.5-5.43,1.38-2.05-.1-5.21-1.65-7.72-2.06-12.95-2.11-31.72-3.99-44.82-4.41-2.48-.08-6.52-.35-7.34,2.5-.45,2.3,4.64,2.79,6.24,2.92,3.51.3,7.02-.49,10.24-.4,9.47.29,18.77,1.61,28.07,2.23,23.91,1.58,48.15,3.85,71.49,5.78,1.84.15,3.84-.17,5.71-.03l-4.86.54,2.16.54-1.08,1.61c1.61.25,3.18-.55,4.78-.21,1.33.29,2.06,2.44,4.41,1.3l.27,1.61,1.62-1.09c.58,1.72,2.62,1.19,4.19,1.79,3.02,1.15,9.16,4.11,11.61,4.7,1.91.47,4.35-1.13,5.03.56l-2.14.88.52,2.37c.89.23.23-.94.89-1.09.7-.16,1.6.09,2.35.01-2.18,3.57,4.83,3.76,7.19,3.22.27-.06.77-1.51,2.89-1.57,1.22-.04,2.15.53,3.15.49s1.83-1.22,3-.53l-.54-1.62h3.24ZM218.44,416.5c2.85-.17,4.82-1.97,6.99-3.55l4.9-9.43c-2.18,1.79-3.75,5.48-5.59,7.39-.52.53-7.13,4.92-6.31,5.59ZM181.64,415.43c-2.06-.33-4.19-.5-6.24-.04-.96.22-1.59-.48-1.33,1.11,2.61-.35,5.81,1.9,7.57-1.07ZM159.99,438.14c-2.25-.15-5.55-1.99-7.57-.27,1.43-.19,3.16,1.24,4.02,1.29.35.02,3.45-.35,3.54-1.02ZM59.89,463.02h-6.49s1.08,1.07,1.08,1.07c-1.35.05-2.71-.05-4.06,0-.66.03-2.01-.41-1.88.54h4.32s-2.7,1.62-2.7,1.62c2.56-.11,6.02,2.55,8.28,1.11.92-.59.95-2.45,3.62-1.65-.66-1.68-2.9-.97-4.33-1.08l2.16-1.61Z"/><path d="M74.23,446.25c.18.05.83.74.81,1.08-2.18.73-4.84-.03-6.64.12s-6.27,2.1-8.33,2.42c-1.2.18-2.81-.82-3.74-.85-.24,0-.18.93-.59,1.02-1.31.28-5.04.89-6.47,1.07-1.63.21-4.34-.38-6.16.02l2.16,1.07c-3,1.2-8.96-1.37-11.11.53-.51.45-.63,1.51-1.17,1.64-1.15.29-5.2-.12-6.29-.67-.78-.39-.8-1.39-1.29-1.52-1.94-.5-6.71,1.06-7.2-2.15l1.62-.54-3.18-.11c-.41-1.4-1.39-2.66-1.16-4.41.03-.2,1.89-.75,1.09-2.52l-1.61.54v-31.91c.19-.21,3.68,1.12,4.63,1.12,1.02,0,.5-1.11,1.56-1.19,4.62-.32,13.9,1.7,18.39,2.79,2.51.6,5.46,1.78,7.87,1.06l-.55,1.07c1.99.39,5.4-.18,6.33,1.62l13.16.55-.55-1.07c.8-.54,6.8,3.03,8.66,2.71l-1.63.54.55,1.07-2.17.54c1.66.34,4.02-.04,5.52.16.72.1,7.88,1.3,6.92,2h-2.71s.55,1.08.55,1.08l-2.4.57-.63-1.14-1.84,1.38c.52.97,10.2,2.86,1.08,4.61l3.24.54-2.16,1.61,6.49,1.08c-2.45-.82-1.67,2.51-2.49,2.74l-7.79-.3,10.82,1.36c-.81,1.94-2.18,1.06-3.56,1.51-.97.32-1.82,2.44-4.01,1.73l4.86,1.07-9.73.55,2.16,1.07-7.44,1.44-1.75,1.27c2.2.36,5.89-.5,7.85,0Z"/><path d="M279.99,389.65c.26.06,4.09,1.24,4.62,1.54,1.16.66,1.15,1.55,1.62,1.89.64.46,1.74.3,2.23.65.63.44-.29,2.17,1.89,1.72-1.02,2.08,1.76,3.29,2,3.98,1.29,3.76-.23,5.75-.76,8.83-.17.99.36,1.88.21,2.86-.6,4.07-8.56,14.11-11.95,16.73-9.49,7.36-30.17,13.46-38.38,1.59-3.01-4.35-1.8-8.12-2.96-12.72l1.05-.58c.88-5.26.62-8.1,4.09-13.12,2.41-3.5,6.43-7.8,10.47-9.29l-.49-1c2.01.01,2.2-1.65,3.22-2.19l.06.99.75.11c6.57-3.37,15.2-3.65,22.33-1.98ZM261.19,421.91c-.86-2.15-4.07-7.72,0-7.58l-.55-1.62c2.46.42,4.93-2.94,7.02-3.47,1.22-.31,3.32.89,4.63-.86.97-1.41-3.82-1.63-4.62-1.41-1.53.43-6.97,3.48-7.89,4.85-.37.55-2.72,5.68-2.7,6.01.05.86,1.12,3.66,2.38,3.1l.11,1.52c.7.22,1.22-.46,1.62-.54.09.22-.14.72.02,1.05,1.98-.17,4.06,1.16,5.92.3.43-.2,6.87-5.65,7.29-6.22.89-1.21,1.51-2.79,1.37-4.32-2.39,2.8-2.94,5.47-6.32,7.47-4.01,2.38-4.73,1.01-8.29,1.72ZM256.25,415.38l-.81-1.54-1.48.47-1.44,3.81,3.24-.54-.51-1.93.99-.27ZM257.02,422.84c-1.29-1.64-.17-4.78-4.49-4.18-.19,3.06,1.18,2.2,1.33,2.29.37.22.28.55.31.56.71.24,1-.21,1.05-.16,1.37,1.37-2.3.67-1.61,1.89l2.16,2.21,2.7-1.66c0-.37-1.21-.66-1.45-.96Z"/><path d="M254.69,348.34l-1.08.54,2.16,1.08c-2.53-1.22-3.55.26-5.18.5-15.57,2.37-33.02,5.53-48.62,6.01-4.88.15-37.25.01-39.29-1.41-.67-.47-.34-1.98-2.69-1.31l.55,1.07c-3.83-.95-8.24.86-11.66-1.08l-.57,1.12c-1.49,0-3.4-1.27-4.79-1.11-.89.1-1.5,1.1-2.72,1.12s-3.1-1.19-4.61-1.45c-1.75-.31-3.74.37-5.68-.77l.81,1.62c-.62.05-1.18-.37-1.79-.33-7.72.48-19.24,1.75-26.64.9-.6-.07-1.21,0-1.63-.55l.17-1.36c-1.5-1.3-2.35-.57-1.48,1.34-2.25-.12-4.55.16-6.8.03-7.6-.44-16.06-1.17-23.75-.55l-.62-1.14-3.2,1.15-.57-1.15c-1.23.28-2.5,1.21-3.79,1.16-1.96-.07-1.01-.51-3.77-.24-.93.09-2.28-1.83-4.77-.34-.34.2-.31,1.08-.71,1.11-.62.05-1.38-.47-2.09-.47s-1.54.56-2.08.48c-.71-.09-2.01-3.27-.53-3.85l3.42.03-.8,1.1c4.4-1.5,8.66-1.11,13.24-1.1l.31,1.55,12.67-.48-1.08-1.07,17.02-.58.31,1.24c.14.95,2.58.83,1.07-1.2,7.66-.13,15.33-.7,23-.78,16.72-.18,33.24.66,49.78,1.74,4.58.3,9,.05,13.57.12,16.1.25,31.73-.31,47.58-1.62,3.19-.26,8.32-.58,10.42-1.58,3.12-1.49,6.25.47,8.43.48,1.38,0,3.51-1.03,5.22-.53l-2.16-1.07c2.3-.49,3.99-.61,5.41,1.61Z"/><path d="M446.78,347.81l-1.07-1.62h6.49s-1.36.54-1.36.54l-.26,1.07c1.4.26,2.72-.31,4.06-.42,2.01-.15,3.41.28,4.88.39,10.29.79,20.37,3.45,30.56.02l-.55-1.07,8.32.38,4.66-.93v2.71s-4.87.27-4.87.27l4.88.27v7.03c-.16.17-1.33-.45-1.89-.43-13.17.43-26.37-.8-39.5-1.73-18.16-1.29-36.39-3.46-54.66-5.4-11.81-1.25-23.78-2.72-35.72-3.25-.66-.03-2.01.41-1.88-.54l65.67.07c2.79-.01,5.34,1.32,7.89,1.85,1.35.28,2.82-.74,4.35.78Z"/><path d="M14.98,499.8v-3.79c3,2.34,7.14.58,10.53.52,49.8-.97,99.58-.91,149.37,1.65l12.72,1.62H14.98Z"/><path d="M369.74,373.47c.15.06.15.61.57.78,1.68.66,2.58-1.9,3.69-1.91.57,0,1.32.83,2.19.88.82.05,1.54-.55,2.1-.55.34,0,.27.94.98,1.26,2.68,1.18,5.6,1.72,8.53,1.47-.96,1.66.29,2.43,1.08,3.78-.78.56-5.61-.03-4.52-1.05.67-.63,1.51-.86,1.27-2.19-1.47-.57-2.62,2.69-3.02,2.72l-16.96-4.39c-.46-3.27,2.68-1.32,4.09-.8Z"/><path d="M140.47,417.13l.12,1.43c2.68-.22,3.41,1.65,5.15,2.74.66.41,1.6.38,2.17.81s4.59,4.1,3.98,4.67c-2.48-.24-4.25-2.91-6.52-4.03-.84-.42-1.99-.08-2.56-.41-.27-.16-.43-1.2-1.22-1.74-1.47-1.01-3.88-.74-4.58-3.01-.5-1.62,2.4-.37,3.46-.45Z"/><path d="M59.62,414.88c-.4-.03-1.26-.58-2.09-.66s-9.3-.48-7.92-1.5c7.85-.66,15.33,1.41,23.27,1.08.04.35-.72,1.08-.81,1.08-4.03,0-8.48.26-12.45,0Z"/><path d="M272.54,373.24l-23.26,4.86,7.46-3.08c5.21-.87,10.44-2.53,15.8-1.77Z"/><path d="M142.69,345.11l-.55,1.07c1.91-.22,3.19-1.34,5.18-.61.77.28.95-.17.77,1.15-4.75.35-9.33.6-14.06,0,.15-.62,2.58-1.52,3.01-1.58,1.81-.25,3.82.1,5.65-.03Z"/><path d="M49.61,410.55c-.79,3.86-4.28.9-6.83.55-1.17-.16-2.86,1.25-3.46-.55h10.28Z"/><path d="M57.73,400.28l-4.53.47c-2.22-.84-5.78-.15-7.37-2.09l11.9,1.62Z"/><path d="M199.5,346.73c.79.83-.18.95-.77,1.14s-7.09.18-7.35-.08c-.21-2.32,2.75-1.06,4.03-1.06.95,0,3.21-.93,4.08,0Z"/><path d="M379.15,370.52l-4.87,1.09c0-1.6,1.8-1.04,1.08-3.25.88-.46,4.07,1.75,3.78,2.16Z"/><path d="M150.26,346.72c-.24-1.41.22-.96,1.17-1.23,1.38-.39,3.15-.97,4.23.42-.02,1.21-4.46.76-5.4.81Z"/></svg>