<?xml version="1.0" encoding="UTF-8"?><svg id="a" xmlns="http://www.w3.org/2000/svg" viewBox="0 0 512 512"><path d="M150.37,219.32c.15.47.62,2.7.73,2.83.13.15.67.08.83.25,2.75,2.77,4.16,3.49,8.37,3.27,3.92-.2,4.4-1.33,7.34-2.79,14.77-7.34,29.91-5.99,44.63.56.95.42,4.68,1.82,5.22,2.2.29.21.08.76.23.9.12.11,2.08.94,2.86,1.42,6.32,3.88,11.71,9.11,16.3,14.8,3.11,3.86,6.01,7.95,8.34,12.25.59,1.08,1.03,3.07,1.72,4.26l2.16.04c-.04-.87.09-1.78-.03-2.65-.54-4.24-2.86-10.11-4.34-13.96-3.24-8.42-7.27-16.11-12.93-23.17-5.36-6.68-15.43-15.49-23.03-18.91-8.74-3.93-18.37-6.53-28.05-6.4-1.94.03-4.07.63-6.12.33l.32.62c-3.19-.12-6.45.91-9.4,2.08-4.95,1.96-11.81,7.03-14.13,11.96-.25.54-1.62,3.8-1.64,4.02-.11.85-.13,4.9.03,5.61.05.22.5.2.59.47ZM153.92,212.05c.21-.42.72-.46.79-.61,1.17-2.37,1.55-3.29,3.69-5.25,2.11-1.93,7.05-5.01,9.82-5.6.86-.18,1.79-.3,1.98.72.31,1.67-.51,1.5-1.46,2.17-.94.66-1.94,1.12-2.79,1.76-4.17,3.17-6.58,7.65-9.58,11.8-3.24,2.46-3.42-3.11-2.46-4.99Z"/><path d="M298.13,203.36l.31.6c-.77.18-1.95.57-2.6.96-.2.12-.23.47-.46.62-14.5,9.35-24.21,25.46-29.34,40.93-1.01,3.05-2.68,6.77-3.08,10.18-.1.88,0,1.77-.03,2.64.66-.03,1.56.21,2.06-.31.02-.75.89-1.18,1.06-1.52,3.9-7.68,7.3-13.6,13.53-20.02,15.88-16.39,42.45-25.62,64.49-14.8,1.29.63,2.97,2.26,4.6,2.62,2.35.52,7.34.63,9.41-.65.17-.1,2.61-2.57,2.75-2.75.11-.15,1.44-3.08,1.46-3.26.39-3.01-.26-6.53-1.51-9.21-3.31-7.11-13.76-12.86-21.02-14.19-1.47-.27-1.32.09-2.72-.56-2.57-1.19-14.35.08-17.34.55-5.65.9-13.77,4.01-18.77,6.7-.81.43-1.52,1.53-2.78,1.46ZM342.34,200.51c.91-.22,4.61,1.23,5.64,1.72,1.52.72,3.56,2.35,4.69,3.32,2.21,1.89,4.21,4.06,5.42,6.51.66,1.33,1.07,6-1.3,5.67-1.36-.19-1.64-1.57-2.19-2.32-2.61-3.5-4.94-7.49-8.71-10.3-.66-.49-3.61-1.89-3.92-2.37s-.1-2.11.38-2.22Z"/><path d="M206.97,170.35c.21.62,1.03,2.45,1.47,2.84.45.41,2.94,1.63,3.55,1.73,1.95.32,3.88,0,5.82.15,3.37.27,7.15,1.16,10.39,1.87.53.12,1.16-.02,1.71.02l-.32.62c.54-.02,1.07,0,1.59.14,1.54.44,5.05,2.24,6.46,3.14.5.32,4.92,4.05,5.09,4.34.18.32-.06.93.11,1.13.11.13.67.01,1.04.39,1.62,1.65,4.87,7.96,5.79,10.29,3.05,7.74,4.42,16.88,5.07,25.04.11,1.45.31,2.23,2,1.69.91-.29.42-3.19.52-4.19,1.11-11.21,5.35-27.63,13.66-35.67,4.74-4.59,9.57-6.21,15.88-7.55,1.85-.39,3.62-1.05,5.54-1.22,2.14-.19,4.52.2,6.57-.03,1.99-.22,4.61-1.81,5.58-3.55.65-1.16.64-2.38.54-3.69-.02-.3.06-.69,0-.94-.07-.29-1.66-2.14-1.99-2.39-.11-.08-2.27-1.34-2.41-1.38-1.52-.45-4.53-.69-6.14-.64-5.74.18-12.17,1.88-16.87,4.52-9.79,5.5-15.69,14.7-19.71,25.29-.32.83-.53,3.3-1.28,3.69-2.18,1.12-2.05-2.24-2.55-3.69-2.32-6.72-7.27-15.46-12.65-20.25-4.5-4.01-11.59-8.26-18.12-8.92-3.46-.35-8.24-.58-11.63,0-1.06.18-2.15.86-3,1.57-.1.08-1.58,1.55-1.62,1.66-.19.52-.07.97-.1,1.49-.04.83.02,1.68,0,2.51Z"/><path d="M467.13,447.14c-1.36-3.26,8.34.3,6.96-2.96-1-2.36-6.86-7.24-9.27-8.66-5.45-3.21-11.09-3.76-16.63-6.29l6.96-6.44c-12.64-3.76-24.08,3.11-28.56,14.97l-18.26-1.06c4.08-3.45,6.54-13.99,9.49-16.88,1.75-1.72,6.68-2.49,9.12-3.83,4.96-2.73,10.59-6.35,12.36-12.07,9.85,4.53,18.9,4.71,25.82-4.53l-10.96.49c4.09-3.13,8.47-5.62,10.95-10.45l-5.97.49c2.31-4.11,2.27-8.77,1.93-13.37l-5.9-13.49-9,13.92-1.99-.73-.48-2.24c-4.3,3.99-6.16,9.06-5.49,14.93-4.44.85-5.41-2.23-7.72-4.74-.49-.53-.87-3.01-1.76-.25-2.39,7.45,7.21,14.01,6.36,18.19-1.15,5.65-11.4,13.64-16.79,15.66,6.71-21.61,4.42-58.42,27.19-70.86,18.18-9.93,38.41,1.05,37.07,22.11,4.13-26.44-26.41-35.89-44.86-19.94-27.86,24.08-9.15,74.11-46.44,92.95-2.73,1.38-19.15,7.82-20.8,6.59,5.08-6.62,10.15-13.12,10.42-21.93.84-1.34,8.01.15,10.88-.08,10.65-.86,17.56-7.37,19.54-17.79-6.19,3.29-12.53,7.28-19.91,6.96,1.53-1.9,3.7-2.88,5.48-4.96,3.6-4.2,6.12-9.31,6.46-14.93l-5.96,3.98c-.97-4.71-.77-9.1-2.83-13.6-2.13-4.67-8.31-8.58-11.89-13.37,1.76-.39,3.46-.97,5.07-1.76,3,4.71,7.97,8.08,14.62,7.83-.92-2.01-4.4-1.83-6.52-2.93-2.76-1.44-4.78-3.57-6.14-6.01.79-.5,1.56-1.05,2.27-1.66,1.22-1.06,2.29-2.29,3.24-3.63,2.45,3.49,9.44,3.29,9.14-2.08-.21-3.8-2.85-5.26-5.37-5.07.97-2.39,1.75-4.82,2.45-7.07.08-.27.16-.54.24-.81,8.6,2.59,11.4,14.29,12.5,21.95,1.43,9.92.09,15.38-.75,24.88-.1,1.12-.92,3.58.87,3.35,5.28-13.21,6.25-49.53-11.44-54.3,2.66-9.97,3.85-19.86,2.14-30.81-3.48-22.22-15.13-40.64-34.97-52.97-17.84-11.09-41.01-15.27-61.6-8.13-5.19,1.8-10.27,4.08-15.1,7.2-17.59,11.36-29.33,30.04-36.25,49.95-2.3,2.61-2.39-1.3-3-2.86-6.76-17.44-18.19-36.18-34.54-46.14-.84-.51-2.8-1.65-3.14-2.51-.34-.13-1.03-.02-1.38-.28-.35-.26-.02-.91-.36-1-.47-.12-1.28.17-1.82.03-.35-.09-.16-.59-.21-.64-.21-.2-.58-.6-.63-.63-.08-.05-1.45-.5-1.76-.61-1.97-.7-4.37-1.82-6.34-2.51-15.22-5.3-33.72-4.27-48.46,1.39-16.63,6.4-30.29,17.86-39.02,32.89-4.21,7.25-6.82,14.12-8.75,22.12-2.62,10.86-1.48,24.93,1.68,36.89-16.45,6.05-15.4,41.01-10.24,53.91,1.79.22.97-2.23.87-3.35-.84-9.5-2.18-14.96-.75-24.88,1.05-7.3,3.64-18.28,11.32-21.54.65,2.03,1.34,3.99,2.09,5.82.22.54.47,1.1.73,1.67-2.15.24-4.14,1.79-4.32,5.06-.29,5.19,6.23,5.55,8.89,2.42,1.2,1.48,2.54,2.79,3.99,3.74.6.39,1.22.74,1.87,1.07-1.36,2.5-3.4,4.69-6.22,6.16-2.11,1.1-5.6.92-6.52,2.93,6.79.26,11.84-3.28,14.81-8.14,1.71.67,3.52,1.14,5.37,1.4-3.48,5.11-10.15,9.16-12.38,14.05-2.06,4.51-1.86,8.9-2.83,13.6l-5.96-3.98c.34,5.62,2.86,10.73,6.46,14.93,1.78,2.08,3.96,3.06,5.48,4.96-7.38.33-13.73-3.67-19.91-6.96,1.99,10.41,8.89,16.92,19.54,17.79,2.87.23,10.03-1.26,10.88.08.27,8.81,5.35,15.31,10.42,21.93-1.65,1.23-18.07-5.21-20.8-6.59-37.29-18.84-18.58-68.86-46.44-92.95-18.45-15.95-48.99-6.5-44.86,19.94-1.33-21.06,18.9-32.04,37.07-22.11,22.77,12.44,20.48,49.25,27.19,70.86-5.38-2.02-15.63-10.01-16.79-15.66-.85-4.18,8.75-10.73,6.36-18.19-.89-2.76-1.27-.28-1.76.25-2.32,2.51-3.28,5.59-7.72,4.74.67-5.86-1.19-10.94-5.49-14.93l-.48,2.24-1.99.73-9-13.92-5.9,13.49c-.34,4.59-.38,9.26,1.93,13.37l-5.97-.49c2.49,4.83,6.87,7.32,10.95,10.45l-10.96-.49c6.92,9.24,15.98,9.06,25.82,4.53,1.77,5.72,7.4,9.34,12.36,12.07,2.44,1.34,7.36,2.12,9.12,3.83,2.96,2.89,5.41,13.43,9.49,16.88l-18.26,1.06c-4.48-11.86-15.92-18.73-28.56-14.97l6.96,6.44c-5.53,2.53-11.18,3.09-16.63,6.29-2.41,1.42-8.26,6.3-9.27,8.66-1.39,3.26,8.32-.3,6.96,2.96-7.89,6.74-13.28,15.7-12.94,26.38,3.52-1.02,6.24-4.46,9.93-5.5,5.69-1.61,10.4.02,14.48-6.43,1.29,2.72-.49,6.5-2.49,8.46,3.11.55,9.06-3.98,11.5-6.43,3.32-3.33,4.82-7.96,8.42-10.99l-.98,10.95,2.97-1.99c-.65,5.08,1.2,8.97,3.26,12.93-1.88,3.36-2.95,7.23-2.95,11.35v33.02c0,12.86,10.43,23.29,23.29,23.29h310.48c12.86,0,23.29-10.43,23.29-23.29v-33.02c0-3.79-.91-7.36-2.51-10.52,2.4-4.63,4.97-8.9,4.22-14.76l2.97,1.99-.98-10.95c3.6,3.03,5.1,7.66,8.42,10.99,2.44,2.45,8.39,6.98,11.5,6.43-2-1.96-3.78-5.74-2.49-8.46,4.08,6.46,8.79,4.83,14.48,6.43,3.69,1.04,6.41,4.48,9.93,5.5.34-10.68-5.05-19.64-12.94-26.38ZM454.18,379.99c1.82-.25.82,2.08.55,3.04-1.71,6.04-5.28,10.88-10.03,14.87-1.12.94-1.62,2.41-3.49,1.98,5.48-5.83,10.78-11.93,12.97-19.89ZM68.69,398.9c-4.75-3.99-8.32-8.83-10.03-14.87-.27-.96-1.26-3.29.55-3.04,2.19,7.96,7.48,14.05,12.97,19.89-1.87.44-2.37-1.04-3.49-1.98ZM405.86,439.71c4.2-.81,10.16,1.42,14.42,1.99-5.93,6.4-7.04,13.47-4.97,21.88l3.97-4.97c-.8,2.48-.58,4.57.19,6.47-2.56-.97-5.33-1.5-8.22-1.5h-3.6c.39-2.06.52-4.08-.3-5.96l2.98-.49c-3.91-6.1-11.18-5.62-15.93-9.97,4.13-.54,8.02-6.78,11.48-7.45ZM399.61,463.58l.74-.99.74.99h-1.48ZM392.74,448.8c3.83,1.61,1.19,4.99,1.54,8.35.17,1.65,1.52,1.24,1.99,2.25.57,1.25.36,2.91,1.36,4.17h-6.29c-7.11-3.77-16.24-4.5-23.86-3.97l13.48,2.95c1.1.32,2.11.67,3.06,1.03h-22.56l-8.92-3.97c13.84-1.71,27.39-5.46,40.21-10.8ZM347.31,463.58l-1.75-1.01c-.25-1.31.36-1.07,1.48-.99,1.35.09,4.32.91,7.19,2h-6.92ZM271.72,463.58v-23.55c2.51-.44,5.24-.3,7.72-.6,2.03-.25,8.29-1.06,10.28-1.61,1.63-.45,3.32-.84,5.03-1.19.43,4.74,2.55,9.8,6.06,13.41,9.86,10.13,25.99,7.14,37.75,2.58.23-1.86-1.97-.7-3.02-.53-10.84,1.71-23.48,4.09-32.34-4.44-2.51-2.42-4.77-7.09-5.49-11.61,1.03-.19,2.06-.38,3.1-.57.03.17.05.34.09.51,1.64,7.32,14.31,6.22,12.76-2.72-.04-.22-.09-.43-.15-.64,2.08-.51,4.76-.71,7.03-1.32.98,1.47,2.47,2.49,5.06,2.43l-3,1.99c-1.15,1.17,8.82,6.09,9.98,6.45,3.15.99,14.4,1.29,14.69,2.95-.48,11.32-8.03,9.36-16.21,12.47-3.85,1.46-8.59,3.47-12.98,5.99h-46.38ZM162.06,463.58c1.81-.56,3.41-.94,4.3-1,1.11-.08,1.73-.32,1.48.99h-.01s-5.76,0-5.76,0ZM193.47,463.58c-3.86-2.05-7.85-3.72-11.17-4.99-8.18-3.11-15.73-1.15-16.21-12.47.29-1.66,11.54-1.96,14.69-2.95,1.15-.36,11.13-5.28,9.98-6.45l-3-1.99c3.07.07,4.59-1.36,5.55-3.27.19.03.37.05.53.1,2,.6,4.07,1.12,6.16,1.6-.13.35-.23.72-.3,1.11-1.55,8.94,11.12,10.04,12.76,2.72.09-.39.14-.76.19-1.12,1.01.22,2.02.45,3.01.69.02,0,.04,0,.06.01-.63,4.66-2.95,9.57-5.55,12.07-8.86,8.53-21.5,6.15-32.34,4.44-1.05-.17-3.25-1.33-3.02.53,11.76,4.56,27.89,7.55,37.75-2.58,3.65-3.75,5.79-9.05,6.1-13.95,1.28.18,2.56.35,3.92.73,2.79.78,7.18.63,10.15.96l-.32.62c1.1.04,7.72.25,7.88.82l-.03,23.35h-46.8ZM165.15,424.57l-2.28,16.12c-2.35-8.38-.57-15.99,2.5-23.86l4.46-7.97-4.68,15.72ZM300.32,409.86s.31-.59.31-.63c-.03.02,0,.53-.31.63ZM343.57,407.85l4.46,7.97c3.07,7.87,4.84,15.48,2.5,23.86l-2.28-16.12-4.68-15.72ZM388.12,392.69l-1.66,16.7-5.03,9.39c3.7-11.52,5.7-22.74,3.99-34.82l2.7,8.73ZM387.68,359.98c.48-4.52,2.76-8.54,6.58-10.13-1.64,3.99-3.8,7.51-6.58,10.13ZM377.97,357.58c.06-.23.52-.18.6-.45,1.57-5.22,4.68-9.24,7.03-13.99,2.98-6.02,6.37-14.54,6.82-21.14.73-10.78-.82-18.86-4.87-28.44-.35-.82-2.42-3.55-1.23-4.43,1.17-.87,1.55.2,2.13.86,5.5,6.3,9.77,19.77,10.27,28.23.45,7.68-.15,18.07-2.86,27.09-8.67,1.42-12.13,9.17-11.26,16.9-.67.31-1.37.52-2.06.51-2.66-.03-5.28-2.25-4.56-5.13ZM120.84,355.4c-.97-1.58-1.82-3.21-2.59-4.88,4.41,1.32,7.01,5.7,7.48,10.65-1.98-1.6-3.49-3.49-4.89-5.77ZM128.84,362.68c.68-7.85-3.1-15.61-12.35-16.53-3.09-8.88-3.74-18.57-3.18-28.23.5-8.69,3.9-17.01,7.65-24.57.53-1.06,1.4-1.42,1.49-1.55.45-.64.54-1.04,1.25-1.93.2-.26.19-.91.32-1,.23-.17,1.7.15,1.81.33.44.7-.28,2.7-.62,3.47-4.73,10.95-7.44,19.95-5.03,32.5,1.38,7.17,3.82,12.09,6.87,18.58.31.65.53,1.87.71,2.61l.61-.32c-.11,1.09.88,1.82,1.23,2.46,1.55,2.8,2.91,5.53,3.83,8.62.08.28.54.24.6.46.78,3.29-2.21,5.34-5.2,5.09ZM126.93,410.4l-1.66-16.7,2.7-8.73c-1.71,12.08.28,23.3,3.99,34.82l-5.03-9.39ZM137.91,424.44c7.8-3.47,14.27-9.59,14.97-18.58-3.68,3.26-7.8,5.41-12.94,4.97,3.46-7.94,3.5-14.65.98-22.88l-3.96,4.97c.47-7.1-3.97-12.57-4.47-19.55,3.96.36,8-.22,11.48-1.84,1.72-.8,6.34-3.83,7.05-5.37.46-1,.75-2.06,1.36-3.04.12-.2.81-.85,1.15-.73.1-.63.63-2.53.63-2.67v-5.66c0-1.11-1.13-2.79-1.24-3.21-5.95-21.5-10.95-46.2.57-66.99,2.4-4.32,3.79-5.56,7.16-8.96,2.77-2.8,4.71-3.82,8.35-5.57,8.32-4,12.83-2.95,21.62-2.18,5.76.51,10.23,2.83,15.27,5.63.72.4,1.27.71,1.7.97,1.09.66,1.79,1.16,2.83,1.89,25.52,17.73,37.49,47.99,43.68,76.91l.62,5.24c.15.5,2.4.5,2.54,0l.62-5.24c5.88-27.33,16.08-53.43,37.71-72.51,2.55-2.25,4.85-3.81,7.54-5.66,1.8-1.24,3-1.89,5.03-2.83.21-.1.41-.21.63-.31,1.39-.65,3.21-1.2,4.71-1.89.03-.01-.16-.51.22-.63,1.2-.36,2.65-.5,3.87-.63.68-.07.91,0,1.26,0,.21,0,.42,0,.63,0-.19-.89.4-.51.63-.63,1.98-1.02,6.69-1.22,9.12-1.26,1.85-.03,3.96-.21,5.66.63,3.84.16,13.91,4.39,16.12,7.56.64.92.38.33,1.02.91,11.12,10.01,14.35,29.6,13.34,44.18-.8,11.5-3.92,21.27-6.88,31.84-2.07,7.39.06,14.39,6.49,18.61,4.51,2.96,10.32,4.08,15.83,3.31-.78,6.57-4.84,11.88-4.39,18.68l-3.96-4.97c-2.52,8.23-2.47,14.94.98,22.88-5.13.44-9.26-1.71-12.94-4.97.7,8.99,7.18,15.11,14.97,18.58,1.74,7.2-4.41,24.35-11.76,26.93-1.71.6-14.61,2.77-15.17,2.25.61-8.58,8.18-10.43,11.14-17.23,1.88-4.32,2.16-7.91,1.8-12.62l-6.96,7.96c.57-6.6,2.87-12.27.98-18.9l-2.97,3.97c-1.03-9.73-9.35-13.05-14.46-19.9l-1.5,17.91-3.47-4.97c-5.04,8.54.93,14.1,6.47,19.89-7.14-1.69-9.51-8.01-14.45-11.93l1.49,6.96c-2.77-2.03-5.42-3.68-8.61-4.05-.03-5.12-.41-10.38-.07-15.36.24-3.49,2.14-9.38,4.85-11.79,1.59-1.42,2.45-1.37,4.34-1.91.33-.1.42-1.04,2.22-.6.23.06.18.52.45.6.78.23,1.84.18,2.66.68,1.16.92,3.15,2.95,4.66,2.02.35-.21.4-.85.63-1.19.14-.21.56-.2.62-.43.3-1.14-.54-1-.61-1.27-.29-1.07-.21-2.36-.67-3.62-1.46-3.95-6.48-10.19-10.35-11.88-.48-.21-.94-.5-1.26-.63-1.59-.67-3.34-1.09-5.27-1.49-2.09-.42-4.16-1.05-6.54-.74-.58.08-.4.58-.67.64-1.63.39-4.16.29-5.82.98-.28.12-.9,1.08-1.19,1.23-.66.34-.65.14-1.68.83-1.6,1.07-4.83,2.99-5.55,4.83-.98-2.64.24-6.63-.32-9.21-.02-.09-1.14-1.12-1.4-1.17-1.94-.37-6.68.21-8.73.66-6.63,1.46-13.52,3.98-20.85,4.98-15.35,2.11-29.8-.8-43.74-4.99-1.69-.51-6.36-.85-8.12-.67-.41.04-2.02.54-2.02.65v9.74l-3.87-3.98c-1.37-.66-1.81-1.48-3.41-2.09-1.58-.59-3.84-1.5-5.47-1.75-.66-.1-1.35-.01-2.01-.04l.32-.62c-1.63.17-3.65-.23-5.21-.03-.57.07-.39.55-.68.64-1.35.4-3.2.26-4.8.8-7.73,2.64-12,8.68-14.17,16.26-.07.24-.54.24-.59.46-.43,1.81,1.44,4.22,3.22,3.24.47-.26,2.12-1.91,2.67-2.18,1.55-.73,3.72-.76,5.41-.65.73.05.85.23,1.26.31.1.02.23-.03.31,0,1.14.37,1.73.72,2.68,1.58.56.51,2.46,2.92,2.76,3.53,1.84,3.79,2,7.32,2.11,11.55.12,4.41.04,8.87.01,13.29-2.63.61-4.92,2.07-7.31,3.82l1.49-6.96c-4.95,3.91-7.32,10.24-14.45,11.93,5.55-5.79,11.51-11.35,6.47-19.89l-3.47,4.97-1.5-17.91c-5.11,6.85-13.43,10.17-14.46,19.9l-2.97-3.97c-1.89,6.63.4,12.31.98,18.9l-6.96-7.96c-.35,4.7-.08,8.3,1.8,12.62,2.96,6.8,10.53,8.65,11.14,17.23-.57.51-13.46-1.65-15.17-2.25-7.36-2.58-13.5-19.73-11.76-26.93ZM120.65,449.8c12.81,5.34,26.36,9.09,40.21,10.8l-6.68,2.97h-21.83s.05-.02.08-.03l13.48-2.95c-6.88-.48-15,.08-21.75,2.97h-7.85c.39-1.06.38-2.23.81-3.17.46-1.01,1.82-.59,1.99-2.25.34-3.37-2.3-6.74,1.54-8.35ZM94.11,459.6l3.36,4.21c-1.04.15-2.05.36-3.05.64.31-1.47.27-3.06-.31-4.85ZM107.53,440.71c3.47.67,7.35,6.91,11.48,7.45-4.75,4.35-12.02,3.87-15.93,9.97l2.98.49c-.69,1.58-.71,3.25-.47,4.96h-4.83c-.84,0-1.67.05-2.48.13,1.78-8.03.56-14.84-5.16-21.02,4.25-.57,10.22-2.8,14.42-1.99ZM62.54,448.48l-17.25,11.13c-1.09-1.13,3.57-5.11,4.5-5.94,8.54-7.55,21.05-11.29,32.35-10.97l-19.61,5.78ZM468.1,458.6l-17.25-11.13-19.61-5.78c11.3-.33,23.81,3.42,32.35,10.97.94.83,5.6,4.81,4.5,5.94Z"/><path d="M501.5,423.77c-1.92-1.35-6.69-3.72-8.47-1,14.63.03,14.46,17.52.49,18.92-16.44,1.65-11.01-10.42-17.44-19.4-11.75-16.38-44.7-7.86-54.8,7.45,3.95-1.55,6.39-4.91,10.3-7.12,12.26-6.94,37.55-10.89,43.74,5.42,2.25,5.92,1.47,13,8.74,16.14,14.74,6.36,30.59-11.15,17.44-20.4Z"/><path d="M459.33,362.31c1.88,10.84,20.72,11.03,18.71-2.66-1.64-11.16-21.02-10.7-18.71,2.66Z"/><path d="M442.45,354.35c-4.31,4.23,4.27,13.58,8.79,7.3,4.72-6.57-4.46-11.55-8.79-7.3Z"/><path d="M500.59,432.74c2.34-7.86-12.41-9.82-9.37.28,1.12,3.71,8.05,4.15,9.37-.28Z"/><path d="M311.83,445.98c.43,5.29,7.83,4.35,7.84.18,0-4.63-8.18-4.4-7.84-.18Z"/><path d="M81.81,423.61c3.91,2.21,6.35,5.57,10.3,7.12-10.1-15.31-43.05-23.83-54.8-7.45-6.44,8.97-1,21.04-17.44,19.4-13.97-1.4-14.13-18.88.49-18.92-1.78-2.72-6.55-.34-8.47,1-13.15,9.25,2.7,26.76,17.44,20.4,7.28-3.14,6.5-10.22,8.74-16.14,6.19-16.31,31.48-12.36,43.74-5.42Z"/><path d="M54.06,363.31c2.31-13.35-17.06-13.82-18.71-2.66-2.02,13.69,16.83,13.49,18.71,2.66Z"/><path d="M70.94,355.35c-4.33-4.25-13.51.73-8.79,7.3,4.52,6.28,13.1-3.06,8.79-7.3Z"/><path d="M12.8,433.74c1.32,4.43,8.25,3.99,9.37.28,3.04-10.1-11.71-8.14-9.37-.28Z"/><path d="M201.56,446.98c.34-4.22-7.84-4.45-7.84.18,0,4.17,7.4,5.11,7.84-.18Z"/></svg>