<?xml version="1.0" encoding="UTF-8"?><svg id="a" xmlns="http://www.w3.org/2000/svg" viewBox="0 0 512 512"><path d="M203.56,230.39c.19-2.19.24-4.29,3-3.62,1.02,9.15,7.95,17.19,15.63,21.73,9.55,5.65,21.91,6.39,32.78,5.45l-1.74,2.79c-6.19,2.74-12.78,4.7-18.98,7.37-3.64,1.57-13.57,6.48-14.61,10.47-1.03,3.99,4.45-.05,5.61-.46,8.84-3.12,21.61-2.6,31.19-4.23,9.39-1.59,18.52-6.57,25.47-12.9.33.21.75.5.91.85.5,1.05-.49,7.51-.86,9.07-5.09,21.44-24.31,31.86-45.57,27.01-25.51-5.82-34.83-40.65-32.83-63.54ZM169.68,248.75c3.49,10.96-.33,15.23-.25,25.32.09,12.09,9.69,20.91,20.65,24.28,12.18,3.74,25.9,2.77,38.1-.32-1.58-3.15-4.56-2.7-7.21-3.79-5.52-2.27-12.58-6.42-16.82-10.61-4.26-4.2-9-11.47-10.64-17.23-1.71-5.98-1.17-12.29-2.06-18.24-.38-2.52-3.34-7.08-4.31-9.95-1.25-3.7-2.4-9.09-2.59-12.96-.1-2.09.93-9.58-.41-10.41-1.18-.73-6.38,2.72-7.66,3.6-5.6,3.83-14.83,11.54-12.08,19.2,1.28,3.57,4.01,7.14,5.28,11.13ZM200.33,252.22c1.2-2.21-.33-4.12-.6-6.31-3.6-29.26,15.6-57.84,47.7-46.43,5.03,1.79,21.49,15.74,24.13,20.37,3.01,5.27,1.95,8.69,3.31,13.54.14.5.15,1.04.82,1.12.13-.71.33-1.52.66-2.16,5.85-11.53,4.59-29.34-4.76-38.89-3.48-3.55-14.37-11.18-19.1-12-7.87-1.37-17.03,4.89-24.62,6.27-10.98,2-21.61-3.22-30.34,7.24-9.05,10.84-11.23,30.93-6.26,43.86,1.79,4.64,5.24,10.25,9.07,13.4ZM289.9,302.52c5.38-2.98,9.78-7.96,14.85-11.5,7.84-5.49,15.15-6.64,15.86-18.27.53-8.73-3.2-14.99-7.4-22.18l-2.99.54c-2.89,4.21-5.92,8.46-9.75,11.86-1.34,1.18-4.13,3.35-5.62,4.32-2.89,1.87-9.94,4.25-11.56,7.02-.51.87-.55,1.97-1.03,2.86-7.53,13.66-16.55,18.85-31.88,21.26-.78.12-5.35-.21-4.91,1.56.06.23,3.61,2,4.22,2.27,12.24,5.42,28.18,6.97,40.22.29ZM285.41,213.34c5.8,6.48,9.74,10.21,8.81,20.04-.78,8.29-5.92,13.37-7.1,19.69-.81,4.36-.25,9.44-1.48,13.85.9-.03,1.64.63,2.57.23.57-.24,3.54-2.14,4.3-2.64,1.85-1.21,3.74-2.86,5.4-4.32,14.29-12.54,25.24-40.36,6.69-53.94-4.8-3.51-16.04-8.01-21.89-8.82-1.02-.14-1.73.03-2.68.38-.05,2.41,1.52,4.55,2.12,6.69,1.14,4.06.16,5.39,3.26,8.84ZM242.69,237.93c14.03,1.96,25.71-13.06,14.72-23.58-6.5-6.22-18.59-5.95-25.34-.37-3.23,2.67-8.23,9.15-4.96,13.18,2.41-7.22,8.69-11.28,16.38-10.33,4.91.61,10.29,5.71,9.22,10.89-.93,4.47-6.36,7.52-10.72,6.17-1.97-.61-5.15-3.7-2.35-5.42,5.11,5.93,14.2-2.3,6.85-6.86-4.61-2.86-11.72-1.12-15.24,2.78-.58.64-1.64,3-1.85,3.12-1.37.76-2.78-1.21-3.33,2.51-2.77,18.81,29.24,27.88,41.27,15.15,5.58-5.9,4.11-18.55-.14-24.93l-2.3.02c2.12,9.04-4.7,19.02-13.66,20.69-5.2.97-11.01.85-14.85-3.19,1.06-2.65,4.42-.08,6.3.18ZM212.62,305.59c0,.67,4.37,4.9,5.19,5.62,10.03,8.84,21.44,14.35,34.8,10.17,6.37-1.99,12.12-5.41,17.84-8.72.24-2.98-2.92-1.86-4.86-2.16-7.27-1.12-12.91-2.63-19.41-6.07-1.96-1.04-7.71-5.27-9.17-5.53-2.36-.42-3.15.95-4.95,1.49-2.33.71-5.4,1.73-7.67,2.26-2.33.54-11.78.38-11.77,2.93ZM247.73,203.51c-9.35-3.6-23.97-3.53-31.86,3.34-12.17,10.59-5.54,29.48,6.31,37.35,1.81,1.21,4.22,2.74,6.44,2.41.61-.59-3.5-4.95-4.13-6.02-3.93-6.78-4.36-16.83-.27-23.66,5.37-8.97,16.93-12.53,26.86-10.07.54-.45-2.72-3.1-3.35-3.34ZM271.6,247.48c-8.91,9.69-21.57,14.9-33.91,18.79-1.57,1.08,1.43,1.92,2.39,1.96,8.08.37,22.68-3.43,29.87-7.28,12.49-6.69,25.38-23.66,18.6-38.23-.21-.45-2.47-4.09-2.67-4.24-.61-.45-1.43-.59-2.14-.35-1.23.41-.57,3.68-.71,4.92-1.04,8.91-5.4,17.86-11.43,24.43ZM196.02,254.82c-.63.4-.6.85-.68,1.49-.58,4.88,3.58,14.61,6.31,18.79,3.82,5.84,9.09,9.64,15.15,12.91l1.44-.35c-2.44-3.88-5.71-7.18-8.13-11.09-4.15-6.69-6.19-14.47-11.74-20.23-.37-.38-1.95-1.6-2.36-1.52ZM404.16,400.89c-6.91-5.66-7.28-13.2-10.58-20.74-9.18-20.96-25.41-28.74-42.42-40.95-6.28-4.51-13.16-12.21-19.78-15.6-6.03-3.09-36.22-11.06-41.75-9.37-3.54,1.08-14.56,15.54-15.36,19.21-.99,4.56,3.85,4.03,6.04,6.85-1.17,2.59-1.86,3.55-.42,6.22,3.63,6.72,9.66,2.34,14.84,1.74,6.53-.76,11.48.18,18.06-2.43,3.66-1.45,4.39-4.66,8.18-3,13.79,6.04,15.06,23.99,17.28,36.85-7.53-5.26-15.35-9.17-24.8-6.23-2.76.86-6.25,5.17-6.67,5.22-.61.07-8.7-4.03-11.4-4.67-12.98-3.08-23.33-1.33-34.87,5.04-2.18,1.2-4.1,2.38-5.79,3.59-.88-.87-1.01-2.11-1.75-3.3-2.82-4.57-5.83-9.37-8.19-14.05-3.9-7.71-7.1-16.77-7.13-25.54-.01-2.72,1.74-10.1.29-11.92-.82-1.04-5.67-2.78-6.72-2.35-1.38.57-2.32,5.05-2.56,6.54-3.07,19.24,4.85,35.45,14.07,51.27-5.34-2.67-11.48-2.93-19.74-2.01-15.2,1.69-26.19,6.97-36.42,18.57-2.13,2.42-7.05,11.71-7.68,12.06-.43.24-6.62-1.51-9.82-.48-10.93,3.54-15.71,12.48-19.33,22.5-6.51-13.69-17.32-31.54-8.29-46.5,2.48-4.12,5.32-1.57,9.76-2.64,7.98-1.93,12.04-6.13,18.74-9.78,5.31-2.9,13.96-2.79,12.9-11.59-.42-3.5-1.72-3.95-4.56-5.62.19-4.14,5.13-6.87,1.14-10.53-3.21-2.94-23.33-9.27-27.41-7.92-6.38,2.1-29.64,29.86-33.29,36.83-4.01,7.65-5.37,19.55-8.31,28.03-7.95,22.97-18.12,41.2-12.79,67.21,1.92,9.35,6.62,16.74,3.86,26.74l3.39,5.98c10.47,7.46,21.29.66,32.64-.7,8.3-.99,16.18.24,24.88-1.57,24.48-5.08,48.82-19.35,56.89-44.05,13.2,4.16,26.1,8.71,40.18,8.74l.21-.12c-1.78,5.93-4.87,11.94-8.94,18.16-1.06,1.62-3.76,4.01-3.56,5.94.14,1.28,8.23,6.36,9.69,6.27,2-.12,3.88-3.83,4.92-5.48,6.84-10.9,11.38-22.28,13.44-33.92l2-.2c9.89-7.02,16.71-16.64,23.94-26.13,17.96,13.37,42.19,11.31,61.95,2.72,7.02-3.05,11.96-7.84,18.29-11.27,8.66-4.69,19.67-5.28,23.32-15.74l-.59-5.9Z"/></svg>