<?xml version="1.0" encoding="UTF-8"?><svg id="a" xmlns="http://www.w3.org/2000/svg" viewBox="0 0 512 512"><path id="b" d="M418.34,453.85c-10.13-2.23-22.32-1.13-32.22-2.92-2.04-.37-8.56-4.46-11.13-5.59-1.91-.84-4.03-1.41-6.05-1.91l5.74-3.93-2.2-9.2c-7.19-11.18-16.95-21.78-23.97-32.92-4.65-7.38-2.88-7.02-4.17-14.15-.92-5.1-6.97-17.68-5.09-21.71.54-1.15,4.84-4.45,4.22-5.87-4.77-3.8-9.38-8.19-14.28-11.78-1.17-.86-2.25-.04-3.36-.7-8.63-5.17-18.29-26.66-25.9-33.52-2.91-2.62-11.72-5.75-15.49-4.18,3.92-3.62,1.16-3.67.23-7.33-.96-3.78-.9-7.48-2.33-11.05l-16.3-2.51c-.85,3.26,5.41,2.1,5.85,2.51-.14,3.42.29,6.92-.1,10.34-.82,7.16-6.88,12.76,5.96,9.73v4.17c-10.29,1.04-19.97,1.56-29.77-2.46l8.86-33.89-9.29-54.1-37.37-32.22-55.74-10.25-53.4,22.55-28.83,39.14c-4.51,19.27-7.1,38.27-4.23,58.07l22.86,28.77h-23.13s-10.16-2.81-19.41-3.97c-6.84-6.76-14.71-17.78-20.44-20.65-6.89-3.45-20.15-4.19-27.84-6.88v216.53h512v-26.75l-93.66-31.39ZM263.09,313.9c6.5.23,13.7-2.07,20.12-2.54.93-.07,3.11-.62,2.91.82l-23.86,3.39-18.8-5.05c6.59-.43,13.26,3.15,19.64,3.37ZM283.32,413.18l-31.09-22.4c.86,4.14-3.89,7.35-3.71,10.49.19,3.33,4.93,2.02,4.97,5.39-2.96.53-3.92-2.35-5.9-3.71-3.12-2.14-6.17-3.89-9.4-5.48-.56-.28-.46-1.96-1.79-1.74l-10.93.64h0s-36.25-32.64-36.25-32.64l16.14-2.19c-.75-2.51,8.73-4.13,7.99-5.06.55-3.5,3.46-3.87,4.54-5.03,6.07-6.55,11.81-12.24,16.75-19.29.43-.62.46-1.66.47-2.42l1.68.58.81,1.92c.17-2.44,4.41-10.09,6.45-10.72,2.87-.88,13.5,2.56,17.5,3.1,5.86.8,11.87.95,17.77,1.05,1.11,2.68,1.05,5.7,2.05,8.42.81,2.2,3.36,5.8,5.57,4-.48,4.56,13.83,12.79,14.24,14.65.26,1.18-.67,1.42-1.38,1.95-4.5,3.34-21.59,11.03-22.7,15.77-.69,2.97.36,9.72.76,13.1.98,8.24,3.2,16.43,4.66,24.59l.8,1.06,4.47-.03c1.13.91-3.06,4.49-4.47,4ZM359.98,438.28c-3.52.33-16.62-8.58-21.76-9.7l-41.95-4.5c-1.74-1.64.61-11.83-.06-15.29l-2.62-.92-4.03-31.21c3.33-.76,7.64-4.21,10.77-4.73,1.68-.28,3.07.66,4.49.41,3.02-.54,11.16-4.09,13.08-2.9,1.47.91,15.19,25.23,17.74,29.12,7.68,11.74,16.62,22.69,23.67,34.87l4.61.83c-.94,1.61-1.86,3.83-3.94,4.02ZM262.7,386.6l-10.07-.39c-2.68-3.56-1.19-6.77.09-10.45,7.54.91,11.5,2.26,9.99,10.84ZM383.27,444.17l2.5-5.63c3.64-.96,5.91,2.45,5.73,5.7-3.74.9-5.17,2.98-8.23-.07ZM253.03,362.32c.09-.39,1.28-3.09,1.43-3.18.84-.52,3.15-.25,4.06.28l1.67,4.59c-2.37.26-8.15,2.52-7.16-1.7ZM62.71,294.61l-4.03-.93.25-4.11,3.73-.7c1.03,2.03.84,3.69.05,5.75ZM211.68,364.89l2.78-.7c6.06,4.58-3.1,8.75-2.78.7Z"/></svg>