<?xml version="1.0" encoding="UTF-8"?><svg id="a" xmlns="http://www.w3.org/2000/svg" viewBox="0 0 512 512"><path d="M172.27,346.83c1.07.49,1.2-2.2,2.56-3.24,7.76-5.96,48.14-7.92,59.46-8.41,26.89-1.17,58.69-1.45,85.04,3.57,3.54.67,16.99,3.25,18.45,6.16.47.93-.62,2.32-.37,2.58,3.26.13,3.01-5.86,2.57-8.07-.32-1.64-2.5-2.39-1.97-4.49,1.83-24.28-2.3-51.82,0-75.7.49-5.06,4.21-6.93-.62-12.24-9.99-10.98-47.06-14.86-61.73-15.84-23.87-1.58-78.46-.31-98.37,12.79-5.89,3.88-7.27,7.23-4.69,13.99-.87,27.49,1.65,55.58-1.37,82.73-.15,1.35-.32,5.57,1.02,6.18ZM179.05,261.51l3.88,1.29v-16.81c12.37-3.42,25.02-6.3,37.82-7.75,25.32-2.87,52.93-2.47,78.1,1.39,9.75,1.5,19.42,3.61,28.87,6.36v16.81l4.52-1.29v73.04l-10.55-2.7c-8.78-4.43-19.33-15.67-27.87-19.33-.61-.26-1.12-.78-1.92-.6l-28.17,13.58c7.79.95,15.71,1.09,23.51,2.03,3.93.47,9.79,1.12,13.48,2.04.65.16,1.95.18,1.79,1.1l-22.27-1.96c-33.8-.04-67.95-.57-101.19,5.84v-73.04ZM45.89,457.7c13.79-10.09,32.8-12.19,48.41-5.11,1.93.88,10.6,6.16,10.93,7.78.11.55-.29,1.59-.69,2-.17.18-3.59,2.25-4.19,2.59-12.51,6.96-29.48,7.19-42.41,1.36-1.96-.88-12.46-6.88-12.05-8.63ZM467.74,386.99c3.68-.54,8.28-.95,11.82-.02,2,2.38-7.8,16.36-9.95,18.7-4.4,4.78-18.84,14.21-25.22,14.21h-13.9c4.32-16.78,20.24-30.37,37.24-32.89ZM464.11,339.73c.97,9.49.83,17.71-2.74,26.67-4,10.05-13.82,21.5-24.4,24.39-4.93-20.73,6.98-44.04,27.14-51.06ZM88.99,356.37c.36-.73.2-1.63.58-2.35,8.85-16.81,34.03-24,51.33-17.52,1.19,1.65-9.16,12.17-10.85,13.53-8.97,7.17-19.34,10.24-30.87,9.75-3.71-.16-7.8-1.38-11.28-2.62-.28-1.02.89-.4,1.09-.8ZM47.19,352.32c-.26-4.39.65-8.28.64-12.59.68-.71,7.69,3.36,8.81,4.12,6.47,4.35,13.53,13.57,16.25,20.91,3.16,8.51,3.26,17.11,2.08,26.03-15.53-5.31-26.81-22.34-27.78-38.47ZM371.68,336.5c14.08-4.64,30.46-2.06,41.98,7.48.79.66,1.01,1.48,1.55,1.99,2.17,2.05,4.02,3.5,5.86,6.1,3.29,4.66,4.69,5.39-2.05,6.89-11.86,2.64-26.79-1.13-36.3-8.62-2.02-1.59-12.42-11.87-11.04-13.84ZM418.86,427.64c-10.48-2.12-21.3-11.42-25.96-20.91-1.27-2.59-4.42-11.14-4.42-13.68v-10.02c10.4,2.33,20.29,10.32,25.34,19.59,1.2,2.2,5.04,11.09,5.04,13.06v11.96ZM386.75,310.76c-1.14-2.6-3.43-8.85-3.43-11.43v-10.02c13.32,3.26,24.03,13.96,28.56,26.71.31.88,1.82,5.54,1.82,5.93v11.96c-11.88-2.67-22.11-12.13-26.95-23.15ZM98.25,333.91v-11.96c0-.39,1.51-5.05,1.82-5.93,4.53-12.78,15.25-23.56,28.56-26.71v10.02c0,.84-1.14,5.06-1.48,6.28-3.64,13.16-15.48,25.29-28.9,28.3ZM93.07,427.64v-11.31c0-1.24,2.61-8.6,3.32-10.25,4.68-10.84,15.53-20.39,27.06-23.04v10.02c0,1.85-1.97,7.49-2.74,9.54-4.44,11.77-15.23,22.18-27.64,25.04ZM109.85,441.56c-.39-3,1.19-9.4,2.69-12.09.34-.6,5.16-5.61,5.55-5.7,1.4-.32,6.48.44,7.18,1.4.34.47-.06,1.52.17,1.93,1.85,3.35,1.97,5.61,1.22,9.87-.21,1.21-3.29,7.83-4.04,8.57-.16.16-3.49,2.35-3.7,2.44-4.38,2.04-8.52-2.24-9.07-6.43ZM448.38,427.89c2.28,1.03,2.34,6.16,1.46,8.29-.39.93-5.84,6.37-6.94,6.91-3.17,1.55-10.51,2.84-13.66,1.01-1.97-1.15-2.93-3.43-2.44-5.63,1.21-5.5,5.25-7.34,9.05-10.65,4.18-.11,8.5-1.75,12.55.07ZM398.48,428.64c2.9,3.75,4.93,12.24,1.93,17.08-.09.14-2.24,2.36-2.39,2.42-5.1,2.1-7.89-3.78-11.28-6.46-1.58-2.85-.87-7.5-1.47-9.75-.14-.53-2.2-.29-1.26-1.67.04-.06.88.17,1.2-.53,1.34-2.93.79-5.71,5.54-6.03,3.4-.23,5.9,2.58,7.73,4.94ZM415.16,391.24c-.2-.08-.26-.83-.65-1.1-3.69-2.51-5.75-5.8-7.5-10.13-.09-.23-.95-.24-1.05-.67-2.07-8.52,4.8-9.65,11.38-7.05,4.57,1.81,6.37,5.39,8.21,9.88.09.23.95.23,1.06.67.25,1.02.21,5.71-.01,6.83-.57,2.93-9.1,2.51-11.42,1.57ZM66.91,441.2c-3.39-2.67-6.77-6.98-5.06-11.47,2.25-5.89,15.56-1.27,19.37,2,.36.31,2.77,2.63,2.82,2.82.5,2.01.54,8.9-1.78,9.74-5.11,1.85-11.19.18-15.35-3.1ZM91.46,392.14c-.67,0-4.53-.63-4.73-.81-.23-.21-1.53-5.28-1.47-6.03.02-.28,1.4-4.94,1.56-5.31.2-.45,6.43-6.43,7.1-6.77,1.88-.97,6.14-1.82,8.03-.95.16.07.09.84.68,1.06.6.23,1.87-.16,2.08.03.62.57.32,8.4-.17,9.84-1.58,4.63-8.29,8.98-13.07,8.95ZM71.12,341.85c-.34-1.47-.2-7.8.12-9.41,1.3-6.39,8.43-5.75,11.79-.76,2.18,3.23,3.23,10.14,2.27,14.06-.1.41-.88.32-1.24.97-.22.41.19,1.46-.16,1.94-.59.82-4.56,1.5-5.86,1.28-3.92-.69-4.58-4.06-5.73-7.09-.22-.57-1.09-.55-1.19-.98ZM426.66,343.89c-.95-7.23,1.89-18.63,11.43-15.6.64.2,2.58,3.88,2.71,4.69.97,6.14-1.64,18.52-9.79,16.91-2.88-.57-3.99-3.21-4.35-6ZM90.49,346.83c-.63-.76,3.99-7.38,4.79-8.47.54-.73,0-1.61,1.66-1.22l-4.86,8.41c.11.94-1.03,1.96-1.6,1.28ZM222.76,228.62c-14.2,1.58-28.32,4.58-41.76,9.3,11.3-12.47,24.71-24.02,38.18-34.21,11.5-8.7,23.7-16.88,36.47-23.6,21.49,11.83,41.57,26.56,59.8,42.93,3.74,3.36,9.9,8.63,12.92,12.29.6.73,1.57,1.04,1.29,2.26-6.59-2.1-13.24-4.06-20.03-5.5-26.97-5.7-59.48-6.53-86.87-3.47ZM185.51,287.37v-40.08c12.59-1.85,25.15-4.45,37.82-5.81,32.37-3.49,62.91-1.28,93.84,5.18,1.95.41,6.01-1.03,8.61.63v43.31c-4.59-.28-8.9-2.21-13.33-3.15-41.41-8.76-85.31-6.15-126.94-.08ZM288.54,310.68l-32.89,14.78c-9.48-5.41-21.39-9.67-30.51-15.34-.4-.25-1.79-.96-1.49-1.41l32.65-21.32,32.63,21.97c.09.11.25,1.39-.39,1.32ZM321.59,295.78c-9.04,4.75-19.68,8.4-28.99,12.78l-30.82-21.84c20.72-.24,41.36,2.82,61.41,7.76-.06.95-1.01.99-1.6,1.3ZM189.39,291.88l7.52-1.84c17.89-2.25,35.86-3.36,53.88-3.96l-30.15,21.19-31.25-15.39ZM217.17,309.67l-31.66,21.01v-37.49l31.66,16.48ZM296.06,310.96l29.72-13.9v34.26l-29.72-20.36ZM247.57,325.5c-17.55-.31-34.99.85-52.36,3.23l25.53-17.42c7.13,3.1,13.88,7,20.76,10.59.13.07.19.65.77.96,1.29.68,4.53.45,5.31,2.63ZM534.78,533.53c-7.3-1.21-16.49-1.59-23.23-2.86-.87-.16-.75-1.21-1.37-1.25-1.48-.1-3.22.79-4.72.69-.55-.04-.47-.9-1.44-1.22-.7-.23-2.15-.02-3.14-.4-1.1-.42-2.32-2.25-4.03-3.13-6.21-3.22-12.84-6.14-18.99-9.41-.43-1.82,3.3-.44,5.04-1.21,2.56-1.13.35-4.28-2.05-5.07,4.4-.83.61-2,.28-3.24-.19-.7,1.03-1.9.72-2.09-1.08-.65-4.34,1.78-2.01-3.14-8.21,1.15-6.36-2.22-8.9-4.01-.92-.64-2.64-.23-2.94-.45-.59-.43.34-1.85-.28-2.35-.23-.19-4.09-.59-5.54-1.55-.38-.25-6.07-5.46-6.29-5.78-.83-1.23,2.34-.55,2.03-1.87-.32-1.38-2.36-1.71-3.04-2.82,4.49.06.91-2.22-2-1.9,6.75-5.72-5.61-2.39-7-3.76-.15-.15,1.28-1.12.82-1.74-.1-.13-1.12-.14-1.37-.39-2.99-3.04-3.46-1.71-4.45-2.27-.46-.27,1.43-1.73.65-2.47,8.95-1.31,17.65-4.83,23.51-10.53.63-.61,1.22-.85.97-1.92-18.54-12.55-43.3-12.08-60.16,2.96l1.15,2.23c2.83.83,5.2,2.15,7.63,3.43-2.56-.54-5.42.47-4.71,3.17-4.83-.47-8.41-2.24-11.63-4.31,18.84-17.9,33.36-39.96,35.31-64.14,1.45-17.89-1.69-33.52-9.61-49.37-1.23-2.45-2.27-6.4-4.84-7.76.6,2.78,2.5,5.16,3.55,7.76,14.72,36.44,7.88,69.72-18.73,97.95-3.73,3.95-7.68,7.74-11.81,11.37-1.03-.67-2.08-1.31-3.19-1.87l2.99-.62-3.99-2.19h5.99c-2.44-2.98-10.01-1.25-13.42-1.85-1.05-.18-.25-1.27-.78-1.74-.42-.38-1.11-.68-1.94-.93.09-9.59-3-19.15-9.15-26.69-1.26-1.55-6.46-8.3-8.62-6.78-.43.31-2.89,8.82-3.12,10.13-1.06,5.82-.74,12.15.75,18.2-3.81-1.61-7.83-3.2-11.64-3.53-1.97-.76-4.03-1.46-6.14-2.13l-13.28-97.62c-28.76-2.89-57.59-5.05-86.56-4.64-18.7,1.11-37.38,2.23-55.93,4.83l-13.12,100.17c-.23.02-.54.07-.69.02-.29-.1-.96.15-1.4.02-1.1-.31.03-1.57-1.58-1.28-1.63,2.02-8.99,5.26-13.24,4.56,1.24-4.68,1.74-9.55,1.39-14.3,1.4-.56,2.72-1.11,3.56-1.75.48-.37.14-.91.28-1.06,1.72-1.92,2.56-3.06,2.61-5.45.03-1.51-1.07-4.93-3.61-3.34-.26.16.32,1.62-.05,1.84-.4.23-2.36.1-4.95-.18-.66-1.77-1.47-3.49-2.44-5.14,3.28.28,6.32.59,7.82.94,1.36.31.28,1.63.62,1.92,2.89-1.28,4.65-1.37,7.97-.64.45-1.09-.71-1.26-1.48-1.89-1.69-1.37-13.34-8.66-15.04-8.8-1.38-.17-2.37.41-3.43.64-3.49.76-14.01,4.04-16.95,5.35-1.34.6-1.84.85.33.8,2.14-.05,2.27-.16,4.64.13.06,4.59-4.45,6.44-2.77,11.47.36,1.08,2.81,3.99,5.22,5.98-2.99,6.56-4.34,13.9-3.77,21.06-.33.27-.23.48.06.65.09.94.21,1.88.36,2.8-.88-.03-1.97-.44-3.09-1.16,1.54,3.73-3.28,2.29-4.79,3.32-1.81,1.24-1.1.89-3.7,2.31-.29.16-.56.33-.83.5-19.14-16.03-34.93-35.88-39.2-59.52-3.35-18.56.42-35.61,6.29-53.15-1.72-.36-1.11.44-1.6,1.27-11.04,18.76-10.8,42.72-6.8,63.36l-.72.41c-6.77-18.52-28.15-31.08-47.7-28.15-1.14,1.35,2.79,8.45,3.71,10.08,8.67,15.43,27.65,25.12,45.36,23.49,0-.86,0-1.73,0-2.59,7.2,18.93,19.19,34.88,33.72,48.39l-2.2-.92-6.01,4.39c1.23-8.31-4.5,1.45-5.99,1.88l-1.48-1.25c-.33,2.15,1.68,4.37-3,3.77-.29,1.27,5.17.7,3.98,2.18-.15.19-1.3.74-2.58,1.36-7.05,1.24-13.73,4.21-18.1,9.31-.79.92-.81,1.75-.41,2.49-3.06,2.06-6.04,4.09-8.85,5.99l-3.99-1.26c3.3-5.36-2.16-6.4-8.98-3.76l-.02-1.88c-2.89-.66-4.09.86-5.49,1.25-.76.21-.37-1.16-.98-1.27-2.89-.54-2.39,1.31-3.01,1.3-1.5-.03-3.9-1.97-5.47-1.28-.46.2-.6,3.39-1.95,4.1-.21.11-3.91-.06-5.5.29-1.9.41-2.75,1.37-4.03,1.61-.62.12-2.06-.46-2.87-.29-1.73.37-1.11,1.66-1.96,2.28-.79.58-6.87,1.75-7.22,2.02-1.61,1.23,2.6,3.65,2.18,5.4-.18.74-2.17,1.15-2.41,1.94-.2.64,1.16,1.88.8,2.11-.25.17-3.77-.25-4.81,1.71-1.49,2.81.53,2.69,3.79,3.63-1.02.86-5.01,5.72-4.87,6.2.6,1.96,5.8.61,4.87,3.54-.37,1.15-2.74,2.65-2.04,4.37l-5.94.03,2.98,1.24-5.98,1.89c-2.58,0-5.89.22-7.99,1.26-8.33.05-27.29,2.97-35.27,5.76-19.89,6.95,2.63,10.13,13.11,11.62,48.55,6.91,110.28,6.65,160.47,7.7,110.42,2.31,226.43,2.96,336.41-2.49,13.55-.67,61.87-2.85,71.4-6.27,35.03-4.53,4.77-12.14-10.98-14.76ZM419.27,468.15c-.43.07-.84.18-1.21.34-.17-.45-.45-.84-.79-1.18.65.3,1.32.58,2,.84ZM192.64,429.61l21.95-2.61-3.29,6.73c-5.6.74-11.22,1.6-16.69,2.64l-1.98-6.75ZM239.16,425.06h31.67s-3.4,5.85-3.4,5.85c-.74-.02-1.49-.04-2.22-.05l2.99-1.87-10.98.62,2.98-1.87c-3.3-.2-7.42,1.12-10.52.96-1.52-.08-2.92-1.02-4.97-1.02-1.66,0-2.71.47-3.53,1.01l-2.02-3.62ZM239.16,416l16.8-29.73,15.52,29.73h-32.32ZM290.24,430.22c.63.51,1.12,1.17,1.53,1.91-.47-.04-.93-.08-1.4-.11l-.13-1.8ZM294.13,417.63l8.06-22.3,13.25,26.48c-5.98-1.91-13.94-1.63-19.68-3.26-.7-.2-1.19-.18-1.63-.93ZM296.05,427.64c2.86-.2,5.63.51,8.42.95,1.96.31,12.63,2.17,12.87,3.29l-.98,3.25c-5.86-.99-11.87-1.76-17.89-2.38l-2.42-5.11ZM219.63,432.7c-.27.03-.53.06-.8.09l.94-1.92-.13,1.83ZM194.57,420.53l12.38-24.78,1.83-1.07,7.11,23.27-21.32,2.59ZM322.83,436.31c-.29-.06-.59-.11-.89-.17l.61-2.03.27,2.21ZM314.79,359.12l6.46,60.76-16.54-33.28c3.15-8.44,5.29-17.74,8.62-26.06.39-.98-.38-1.75,1.45-1.42ZM310.26,351.37l-9.69,27.79-13.58-29.08,23.26,1.29ZM298.03,387.25c-2.4,7.69-4.49,16.75-7.62,24.08-.34.8-.35,1.91-1.46,2.09l-3.23-51.71,12.32,25.54ZM277.95,431.27c-1.04-.05-2.08-.1-3.11-.14l2.79-4.78.32,4.92ZM273.42,354.59l3.57,58.16c-4.91-8.62-10.12-17.24-14.66-26.06-.75-1.46-3.03-5.35-3.11-6.62-.1-1.53,9.27-18,10.87-20.75.9-1.55,1.92-3.69,3.34-4.74ZM242.72,348.13c7.77.82,17.73-1.1,25.21,0,.17.03,1.69.78,1.61.97l-13.9,23.6-4.07-5.63c-2.23-5.28-5.61-9.99-8.22-15.05-.67-1.29-2.19-3.02-.63-3.89ZM238.51,354.6l13.44,25.42c-5.86,10.13-10.99,20.77-16.97,30.82-.42.71-.66,1.77-1.62,1.92l5.16-58.17ZM234.55,429.05c-.41-.09-.84-.13-1.3-.05l.51,1.25h-1.62c.09-1.33.33-2.64.89-3.91l1.52,2.71ZM221.71,413.41c-1.93.34-1.02-.51-1.36-1.51-2.87-8.58-5.97-17.23-8.33-25.9l13.56-26.24-3.88,53.65ZM223,350.07l-14.21,27.79-8.41-26.5,22.62-1.29ZM197.14,359.77l8.24,26.08-14.71,29.5,6.46-55.58ZM188.76,437.56c-.4.09-.8.17-1.2.26l.53-2.42.67,2.16ZM137.41,420.82l1-4.4c.62.07,1.38-.07,2,0,2.43.28,6.6.58,10.45.91-1.79,1.26-3.45,2.68-4.98,4.23-3.65-.45-7.04-.83-8.46-.74Z"/></svg>