<?xml version="1.0" encoding="UTF-8"?><svg id="a" xmlns="http://www.w3.org/2000/svg" viewBox="0 0 512 512"><path d="M304.89,470.61c-.53-.17-1.32-.6-1.8-.99-.48-.36-1.23-.82-1.66-.96-1.3-.48-1.47-.63-2.26-1.73-.41-.58-1.06-1.23-1.44-1.42-.87-.43-4.43-.63-5.1-.26-.26.14-.65.19-.82.12s-1.61-1.93-3.2-4.11c-4.67-6.43-7.05-9.12-10.59-11.98-1.18-.96-4.26-3.8-6.79-6.3l-4.64-4.57v-1.18l-.02-1.18-.36.65c-.19.39-.48.67-.65.67-.43,0-2.7-2.38-4.84-5.13-3.13-3.95-4.91-5.03-13.74-8.16-1.85-.65-4.02-1.3-4.81-1.4-2.09-.31-4.48.07-6.5,1.06-2,1-3.15,1.94-5.1,4.3-.04,0-.09.01-.13.02v.14c-.12.14-.22.27-.34.42-2.14,2.65-2.72,3.03-3.51,2.31-.29-.26-1.23-.94-2.09-1.47-.87-.55-2.33-1.8-3.3-2.79-1.95-2-3.44-2.86-5.85-3.34l-1.56-.31-.12-1.18-.12-1.2-.6,1.08c-.65,1.13-1.3,1.42-2.6,1.08-.58-.14-.58-.19-.46-1.59.12-1.35-.29-4.19-.72-4.86-.26-.43-.51.67-.53,2.62-.02,2.12-.39,3.22-1.01,3.22-1.11,0-3.34-1.49-7.36-4.96-2.7-2.33-3.32-2.62-6.04-2.94-1.32-.16-2.36-.41-3.29-.86.58-1.54-2.61-5.89-3.06-6.77-7.75-15.16-13.12-31.08-17.02-47.67l-4.61-22.38c2.84,22.7,8.12,46.69,17.91,67.44.29.61,1.11,2.37,2.08,4.23-.24-.38-.48-.78-.74-1.22-2.89-4.89-4.79-7.05-7.87-8.95-2.36-1.44-5.34-2.02-7.63-1.47-2.12.53-3.97,2-6.21,4.93-1.63,2.16-3.14,3.8-4.54,4.93-8.42-3.13-17.44-5.39-26.09-6.19l13.13,3.16c3.89,1.17,7.71,2.54,11.46,4.07-.9.53-2.32,1.63-3.23,2.5-1.56,1.44-1.95,1.66-3.71,2.17-1.06.31-3.59.84-5.58,1.18-2,.31-4.16.77-4.81.96-2.53.77-4.26,2.21-7.1,5.92-.96,1.25-1.93,2.33-2.14,2.43-.24.1-1.03.29-1.78.43-1.25.24-1.49.41-2.53,1.59-1.61,1.9-1.95,2.02-5.87,2.14l-3.37.1-.55-.89c-.31-.48-.91-1.2-1.32-1.59l-.75-.72v1.59c0,2.5-.31,2.53-2.62.31-1.76-1.66-3.1-2.53-3.92-2.53-.17,0,.26.58.94,1.25,1.3,1.35,1.76,2.07,1.76,2.74,0,.36-.19.39-1.66.26-2.02-.17-3.03-.58-4.89-1.97-1.68-1.25-2.65-1.49-4.76-1.13-3.25.55-4.93,1.23-6.74,2.7-.91.77-2.98,2.07-4.57,2.89-3.1,1.61-4.43,2.72-6.16,5.22-.53.72-1.54,2.09-2.29,3.03-.75.96-2.6,3.63-4.11,5.94-3.25,4.93-4.6,6.55-5.34,6.45-.31-.05-.87-.63-1.47-1.52l-.96-1.44-.12,1.8-.12,1.8-3.61.14c-1.97.1-3.63.17-3.68.19-.31.12.43.55,1.49.87,1.52.43,3.51,1.66,3.51,2.14,0,.31-7.36,5.2-7.87,5.2-.12,0-.36-.24-.51-.55-.24-.48-.26-.43-.26.41-.02.75-.24,1.16-1.2,2.21-.72.79-1.76,2.43-2.7,4.24-.82,1.64-1.76,3.37-2.07,3.85l-.55.91-1.76-.14c-1.61-.14-1.8-.12-2.45.46-.91.75-2.91,3.68-3.13,4.57-.41,1.59,1.49,2.33,6.11,2.41,2.33.05,2.7,0,3.32-.46.48-.36.7-.75.75-1.4.07-.87.12-.89.72-.75,1.06.26,1.32.6,1.16,1.59-.12.82-.07.91.58,1.18.94.39,1.88.12,2.21-.63.26-.55.39-.6,1.18-.48.51.07,1.2.26,1.54.39.53.19.6.34.43.79-.36,1.01-.14,2.19.53,2.74.77.67,2.96,1.32,4.16,1.25.48-.02,1.4.02,2,.12,1.32.22,1.97-.05,2.5-1.06l.36-.7,1.44.51c.79.26,1.44.55,1.44.67,0,.1-.24.46-.51.82-.72.91-1.2,2.72-1.03,3.73.63,3.44,5.15,6.76,11.72,8.59,2.21.63,3.54.72,15.76,1.16,1.32.05,1.59.14,2.29.82.94.91,1.18.94,2.12.26.58-.39.65-.58.46-.94-.36-.65-.34-.67.99-1.9,1.06-.99,1.25-1.3,1.35-2.26.07-.63.24-1.13.34-1.13.12,0,1.01.26,1.95.6,1.9.67,2.62.75,3.3.31.34-.19,1.3-.19,4.02.02,2.65.24,19.18.6,22.21.51.22,0,.26.17.19.51-.36,1.37,2.24,2.19,8.37,2.6,4.21.29,5.9,0,6.79-1.16.41-.53.39-.55-.29-1.56-.72-1.06-.63-1.35.43-1.35.43,0,2.55-.07,4.74-.14,4.86-.17,9.22.24,15.16,1.44,6.3,1.3,11.89,2.7,11.98,3.01.05.14-.07.55-.29.87-.36.53-.55.6-1.95.6-1.47,0-1.59.05-1.8.63-.41,1.06-.29,3.1.19,3.54.63.58,2.65.89,4.5.72,1.4-.12,1.64-.22,1.83-.72.36-.94,1.47-.75,2.82.51,1.88,1.73,2.33,1.88,6.59,2.07,2.07.1,3.87.26,4.02.34.24.14.55,1.11.87,2.6.17.91,1.2,1.13,4.72.99l2.91-.14-.14-1.52-.17-1.54,4.04.02c3.51.02,4.24-.05,5.46-.48,3.39-1.18,4.81-3.44,4.09-6.5-.19-.84-.26-1.64-.17-1.73.12-.07,1.06-.29,2.09-.43,1.64-.24,1.95-.22,2.31.1.34.31.63.34,1.54.12.99-.22,1.2-.19,1.83.26.58.43.77.48,1.08.22.19-.17.36-.55.36-.84,0-.46.17-.58,1.13-.72.94-.14,1.18-.1,1.44.26.17.24.31.6.31.82,0,.65.67,1.11,3.61,2.38,3.06,1.32,5.15,1.95,6.55,1.95,1.13,0,1.78.6,1.97,1.85.12.67.39,1.06.96,1.47.43.29.87.53.96.53.26,0-.1-1.73-.51-2.36-.43-.72-.24-1.25.46-1.25.29,0,1.4-.22,2.48-.46,1.06-.26,2.74-.65,3.73-.89,3.44-.77,4.48-1.73,4.26-3.92-.05-.6-.19-1.35-.29-1.61-.14-.48-.05-.55,1.06-.79,2.14-.46,3.27-1.16,6.98-4.31.99-.82,2.38-1.9,3.1-2.36,1.47-.99,1.18-1.01,4.64.34,1.01.39,2.41.77,3.1.84.7.1,1.3.19,1.37.24.05.05-.29.67-.77,1.37-.96,1.44-1.11,2.62-.39,3.34.51.51,1.3.7,3.15.79.91.07,1.08.14,1.16.6s.24.55.91.55.89-.12,1.11-.6c.17-.36.72-.82,1.3-1.06,1.06-.48,1.78-1.47,1.78-2.43,0-.82-1.01-1.54-2.89-2.05-.94-.26-1.76-.55-1.83-.63-.05-.1.34-.22.87-.31.63-.1.91-.24.82-.46-.12-.31.99-.77,3.75-1.54,1.49-.41,2.31-1.03,2.79-2.17.87-2,.02-3.68-2.29-4.74-.82-.36-1.47-.75-1.47-.87s.58-.39,1.3-.6c.94-.29,1.44-.31,1.93-.12,1.3.48,2.09.31,3.03-.72l.89-.96h2.53c1.61,0,2.91-.12,3.54-.36l1.01-.36.26.75c.31.91.72.79,1.01-.34.19-.77.34-.89.91-.89.77,0,1.56-.67,1.78-1.56.19-.77-.14-1.18-1.3-1.52ZM203.65,505.64c-.14.39-.19.36-.51-.05-.48-.67-.43-1.4.07-1.3.24.05.46.26.51.51.05.24.02.63-.07.84ZM207.31,506.61c-.29.07-.53-.19-.79-.79-.19-.48-.29-.96-.22-1.08.26-.41,1.8-.29,1.97.17.19.51-.43,1.61-.96,1.71ZM39.17,473.54c-1.16.96-2.09,1.01-5.13.29-2.94-.7-3.44-.91-3.2-1.32.24-.39,1.95-1.23,3.51-1.73,1.64-.53,1.8-.53,2.48-.12.29.19.91.41,1.37.51,1.76.36,2.14,1.37.96,2.38ZM304.24,481.6c-.39-.19-.94-.7-1.2-1.11-.26-.43-.65-.82-.84-.89-.87-.26-4.98-.34-5.58-.12-.89.34-2.94,3.63-2.74,4.4.39,1.59,3.97,3.27,6.91,3.27,1.32,0,1.37.02,1.52.72.12.63.24.72.91.72.43,0,1.16-.22,1.59-.48.79-.48.79-.51.65-1.78-.12-.84-.07-1.35.1-1.44.14-.1.26-.63.26-1.2,0-1.11-.31-1.52-1.56-2.09ZM303.79,487.57c-.51-.19-.48-.79.05-1.11.6-.36.77-.31.77.14,0,.67-.39,1.13-.82.96ZM313.07,481.27c.1.12.19.67.19,1.18,0,.89-.02.91-.43.55-.29-.26-.87-.41-1.54-.41-.63,0-1.28-.07-1.49-.14-.43-.17-.53-1.2-.14-1.35.58-.19,3.27-.05,3.42.17ZM57.54,482.49c-.02.39-.24.84-.48.99-.53.41-3.3.41-3.61,0-.51-.63-.51-1.11-.05-1.71.41-.53.67-.63,1.73-.63,1.71,0,2.48.43,2.41,1.35ZM268.82,496.28c-.12.43-.31.51-1.52.51-1.03,0-1.54-.12-2.02-.51-.6-.46-.82-1.16-.46-1.49.24-.26,1.97-.19,2.98.1.99.31,1.23.63,1.01,1.4ZM179.83,503.91c-.34.22-1.47.48-2.6.6-1.08.1-3.37.43-5.1.72-4.11.67-6.81.72-8.54.12-3.73-1.28-6.81-3.22-7.56-4.81-.34-.72-.36-1.03-.14-1.71.6-1.8,2.74-2.5,7.7-2.55,2.86,0,3.51-.1,5.41-.7,3.22-1.01,6.38-.89,6.38.26,0,.29.36.6,1.03.89,2.24.99,3.3,2.43,3.3,4.5,0,.75.12,1.13.36,1.23.55.22.43,1.01-.24,1.44ZM153.84,503.77c-.26,1.18-.7,1.44-2.38,1.44-2.94,0-5.22-1.18-4.74-2.48.26-.72,1.28-1.42,2.36-1.61,1.54-.31,2.05-.26,3.13.26,1.35.65,1.85,1.4,1.64,2.38ZM382.21,390.6l.97-9.73c8.2-.42,16.39-1.36,24.58-1.94,1.64-.12,7.45.25,8.4-.6.23-.21.13-1.11.6-1.56,2.45-2.37,7.66-5.25,10.7-7.8,13.29-11.15,51.14-51.34,22.7-64.05-10.95-4.89-25.82-4.26-35.96-8.31-1.28-.51-5.31-4.44-7.02-5.62-11.22-7.76-26.11-14.74-39.19-18.7-26.11-7.91-55.34-3.98-79.68-17.62l-4.13-25.06c-4.39-12.71-6.99-37.08-25.54-34.25-9.72-19.18-31.89-27.5-51.89-18.84-5.87,2.54-8.21,3.28-14.37,5.09-7.31,2.14-18.86,6.91-19.84,15.67-2.13,18.94.65,40.18-1.48,59.32.68,4.86-.86,11.99.03,16.55.13.66.3.79.7,1.24,1.3,1.47,7.27,4.88,9.45,6.6,2.38,1.88,13.56,10.96,14.4,12.84.5,1.13.09,2.37.36,3.53,1.2,5,4.28,6.86,8.68,8.95-2.58,17.82-4.02,35.88-3.46,53.93.03,1.04.46,1.97.5,2.9.2,4.94.33,9.89.5,14.83l.5-5.13c-1.6-21.99-.05-44.14,3.38-65.88l6.84,2.24-1.97,22.08,82.64-18.05c-.55-6.1-2.26-12.1-2.86-18.19-.95-9.7-1.23-21.95,0-31.61.12-.95.51-4.96,1.22-5.11l4.02,3.26,5.98,49.71c2.15.35,3.93-1.4,5.82.27,1.07.94,3.37,4.95,4.27,6.43,5.49,9.05,9.36,19.09,15.61,27.71l-.43.89c-9.37,5.25-18.2,11.87-25.55,19.7-.8.85-3.06,4.27-3.64,4.62-.92.56-3.8.13-5.38.46-3.22.67-5.91,3.85-6.35,7.02-11.46.12-22.94-.08-34.28,1.48-9.23,11.85-18.72,23.74-25.46,37.25l4.81,2.67c3.54-6.68,8.21-13.02,12.74-19.12,2.9-3.91,6.9-9.87,10.14-13.2.65-.67,1.13-1.55,2.18-1.71l30.4,2.42c-.4,8.34,3.41,11.64,11.68,10.7-.28,5.83-1.38,13.88,2.22,18.94,3.08,4.33,7.58,4.22,10.83.19l7.87-19.61,2.42,4.14c2.02,2.15,4.61,3.03,7.56,2.68,1.26-.15,2.39-1.1,3.37-1,1.38.13,3.44,3.94,7.81,4.39,7.91.81,21.62-2.5,24.32-11.18.59,1.06.81,1.49,2.05,1.83,5.18,1.43,11.31-.86,13.84-5.64,33.65,5.67,69.26,28.78,73.85,65.09h3.41c-5.3-37.74-40.58-61.7-75.89-68.1ZM282.73,304.52c-.73,2.95-.5,5.53-3.64,6.57-6.09,2.03-27.51,7.4-33.32,7.55-2.81.07-7.81-1.34-6.54-5.06.26-.77,10.88-4.28,11.62-6.63l-11.51,4.83-14.28-1.43c-.12-.68.86-.71,1.35-.83,21.71-5.27,32.82-12.41,33.69-36.88l-.99-7.52c-.33,4.28.45,9.17,0,13.37-2.48,23.33-24.36,29.68-44.53,30.32-5.01-1.6-15.55-4.17-17.37-9.78-.64-1.97.07-3.91-.83-5.49-1.01-1.77-8.48-8.24-10.5-9.93-4.23-3.54-9.06-6.95-13.75-9.84l-.14-.62,1.03-46.69c-.33-6.68.17-13.36.46-19.97.39-8.83-1.34-13.1,7.15-18.63,11.7-7.63,28.56-9.16,40.86-2.12,7.06,4.05,10.68,10.3,16.94,15.16l.74,26.26c.85.11.46-1.1.48-1.7.3-7.7.6-15.5,1.47-23.11,11.49,5.25,17.23-12.02,28.66-2.15,3.99,3.45,7.15,12.42,8.81,17.45,8.66,26.35,10.8,59.86,4.12,86.84ZM286.12,386.24l-17.75-1.23c0-.93,17,.86,18.49.25l-.74.99ZM309.73,311.56c-.21-1.05.49-.74,1.22-.74,4.87.02,10.64,2.55,14.82,4.88l2.92-28.21c.45,14.56,3.04,28.42,9.16,41.66l3.48,6.48c-1.64-15.56.66-31.18,1.96-46.68l2.58,21.49,2.42,11.2,2.78,8.16c-.3-15.46,2.4-30.73,5.85-45.71,1.35.21,0,2.35,0,2.67,0,4.14-.37,9.13,0,13.13.77,8.3,5.29,18.1,10.46,24.55l6.57-18.95c1.35.21,0,2.35,0,2.67v10.7c0,.36.69,3.06,1.45,3.16,1.27-5.42,5.14-9.84,9.49-13.13l-.49,6.32c3.06-4.76,6.84-8.73,11.77-11.58,1.8-1.03,4.53-2.65,6.47-2.29-2.77,2.55-4.59,6.19-4.86,9.97,8.26-4.16,17.49-6.48,26.75-6.8l-6.8,2.19c-3.52,1.39-5.65,3.99-7.3,7.29,4.58-.24,10.38.52,13.62,4.13-9.89-1.18-18.71,2.05-28.1,3.78-.68.12-1.45-.35-2.17-.23-12.48,2.15-27.48,7.58-39.42,12.14-8.33,3.19-16.44,6.95-24.38,10.98l-20.25-33.24ZM292.45,374.55c-.48.11-2.01,1.64-2.18,1.46.72-2.84,4.71-2.54,6.99-2.37.6.04,3.01.27,3.22.91-2.33.34-5.89-.47-8.03,0ZM371.02,394.97l5.1-2.92,3.17-3.88c-.34,3.8-4.56,6.82-8.26,6.8ZM379.78,379.42c-1.21-9.93-9.35-18.87-19.46-19.94l5.02,2.03c6.61,3.44,11.48,10.06,12.03,17.64-3.76,1.79-3.85.21-6.18-1.11-2.78-1.57-6.16-3.17-9.41-2.99l5.67,2.35,3.56,2.76c-9.47,5.26-4.29,19.05-14.45,23.48-.93.41-5.95,1.94-6.46,1.56.69-1.49,1.51-3.1,1.83-4.73.11-.59.59-2.94-.36-3.04,0,3.12-1.91,5.68-3.51,8.16-4.41-.03-9.48,1.22-13.02-2.12l2.36-6.83-.42-4.07c-.13,4.5-1.35,9.99-6.61,10.65-6.29.79-9.46-3.51-8.95-9.44.16-1.89,1.18-3.36,1.21-5.11-1.85,1.88-1.99,4.57-2.93,6.8-2.36,5.65-5.16,12.46-7.94,17.84-1.78,3.45-4.91,9.09-9.07,4.03-6.53-7.93-.61-30.6,5.82-37.92,3.58-4.08,9.54-7.22,12.9-11.66-2.66.18-5.25.94-7.78,1.7-5.08,1.52-9.23,4.73-14.59,1.95,21.23-23.41,52.53-36.52,82.32-45.61,6.61-2.02,12.61-4.78,19.03-.76,5.06,3.17,7.25,8.76,9.21,14.14,4.42,12.14,5.87,24.93,5.22,37.83-3.9-.39-8.02,1.06-11.89.45-2.99-.47-5.64-4.06-9.18-1.94-1.3.78-.86,3.82-4.39,2.97-.97-.24-.58-4.25-1.56-5.83-.93-1.5-2.82-2.5-4.59-2.45.01,2.88.41,9.07-3.41,9.24ZM250.12,349.74c-14.42,16.35-26.05,35.28-33.81,55.69-.75,1.97-3.6,11.78-4.12,12.42-.45.54-1.98.68-2.19.48-.66-.65,4.47-13.99,5.26-15.89,8.94-21.52,22.77-41.87,39.49-58.03-.69,2.15-3.13,3.65-4.62,5.34ZM225.8,423.67c16.32-6.47,34.79-9.36,52.3-9.71l-10.4,1.03c-15.16,1.93-30.01,5.83-43.96,12.02-4.19-1.2.39-2.67,2.05-3.33ZM195.91,390.34c-.91,6.16,1.19,13.6.49,19.5-.12.98-.22,1.81-1.48,1.68.35-18.68-1.02-37.33-2.43-55.93l2.42,19.21,1,15.54ZM210.86,372.74c-1.78,8.15-3.77,16.15-4.69,24.49-.42,3.8-.05,8.66-.58,12.07-.14.88-.49,1.64-1.18,2.21-1.02-.67-.65-1.12-.6-2.04.7-12.98,3.42-25.8,6.69-38.32.86-.12.48,1.09.37,1.59ZM229.45,394.49c-.83,2.24-2.53,4.19-3.65,6.31-2.9,5.45-5.37,11.43-6.57,17.52h-1.45c-1.31-1.27,8.46-22.1,11.67-23.83ZM225.72,266.63c5.62,7.09,11.75,13.92,15.41,22.32-12.48,4.4-24.5,9.31-38.06,7.17-.83-.13-1.89-.31-2.55-.86-1.17-.97-3.39-5.28-5.11-7.05-4.08-4.22-9.96-7.83-14.11-12.14l44.42-9.43ZM273.57,216.09c-3.12,8-18.42.9-10.87-6.74,4.43-4.48,13.51-.02,10.87,6.74ZM185.26,238.54c-2.24-13.97-1.72-28.07.41-41.99.84-.09.53,1.68.5,2.2-.07,1.15-.48,2.22-.53,3.37-.13,3.56.08,7.17.04,10.74-.07,6.07-.43,12.32-.02,18.46.39,5.76,1.61,11.5,1.94,17.27l-2.35-10.05ZM196.86,268.53l33.03-8.24,10.75,18.45-11.51-16.49c-10.01,1.44-20.26,5.34-30.21,6.63-.54.07-2.12.59-2.05-.35ZM221.58,297.86l17.11-5.01c-.14.65-1.52,1.24-2.11,1.53-9.18,4.61-20.74,6.64-30.97,6.72l15.96-3.24ZM223.38,256.86c-7.52.31-15.11-.07-22.62.48l5.6-.96c6.31-.05,12.42-.63,18.72,0,.11.85-1.1.46-1.7.48ZM182.75,261.72l-7.29,7.29c.45-1.29,1.95-3.2,2.89-4.16,1.04-1.05,2.99-2.61,4.4-3.13Z"/></svg>