<?xml version="1.0" encoding="UTF-8"?><svg id="a" xmlns="http://www.w3.org/2000/svg" xmlns:xlink="http://www.w3.org/1999/xlink" viewBox="0 0 1024 1024"><defs><radialGradient id="c" cx="512" cy="512" fx="512" fy="512" r="443.08" gradientUnits="userSpaceOnUse"><stop offset="0" stop-color="#00547c"/><stop offset="1" stop-color="#000a18"/></radialGradient><linearGradient id="e" x1="37.48" y1="512" x2="986.52" y2="512" gradientUnits="userSpaceOnUse"><stop offset="0" stop-color="#e3c4a0"/><stop offset="1" stop-color="#e3d47d"/></linearGradient></defs><g id="b"><path id="d" d="M955.08,512c0,244.71-198.37,443.08-443.08,443.08S68.92,756.71,68.92,512,267.29,68.92,512,68.92s443.08,198.37,443.08,443.08Z" fill="url(#c)"/><path id="f" d="M512,68.92c244.71,0,443.08,198.37,443.08,443.08s-198.37,443.08-443.08,443.08S68.92,756.71,68.92,512,267.29,68.92,512,68.92M512,37.48c-64.05,0-126.19,12.55-184.71,37.3-56.51,23.9-107.25,58.11-150.82,101.68-43.57,43.57-77.78,94.31-101.68,150.82-24.75,58.52-37.3,120.67-37.3,184.71s12.55,126.19,37.3,184.71c23.9,56.51,58.11,107.25,101.68,150.82,43.57,43.57,94.31,77.78,150.82,101.68,58.52,24.75,120.67,37.3,184.71,37.3s126.19-12.55,184.71-37.3c56.51-23.9,107.25-58.11,150.82-101.68,43.57-43.57,77.78-94.31,101.68-150.82,24.75-58.52,37.3-120.67,37.3-184.71s-12.55-126.19-37.3-184.71c-23.9-56.51-58.11-107.25-101.68-150.82-43.57-43.57-94.31-77.78-150.82-101.68-58.52-24.75-120.67-37.3-184.71-37.3h0Z" fill="url(#e)"/><path id="g" d="M797.45,493c-14-.04-28.08-2.24-41.52-6.14-2.53-.73-12.85-3.72-14.19-4.73-2.13-1.59,2.58-11.59,1.91-14.62l-55.68,9.43c-.7-.63,4.89-7.04,5.68-7.99,12.29-14.81,27.44-30.03,38.65-45.36,1.33-1.81,3.17-3.63,2.86-6.11h-23.6c-1.54-32.96-5.42-65.59,1.88-98.16-.84-.87-18.7,9.93-21.37,11.19-5.81,2.74-42.03,16.35-45.51,14.15-.6-.38-3.83-9.76-5.33-11.19-3.15-3.02-3.25.44-4.67,1.9-13.11,13.51-25.71,27.49-40.16,39.63l.93-78.34-21.69,11.89-2.82-.06c-19.32-19.36-38.27-37.32-52.11-61.22-1.7-2.94-6.01-14.38-8.79-14.82-1.99-.31-1.3.8-1.9,1.88-3.84,6.93-6.89,14.31-11.04,21.09-12.45,20.3-30.57,36.19-47.04,53.08l-2.1.3-22.41-12.13.93,78.34-43.88-43.4c-3.36,2.66-4.62,13.36-9.31,13.17-5.87-.23-26.27-7.41-32.68-9.9-6.55-2.55-13.63-6.1-19.86-9.4-1.96-1.04-10.97-7.47-12.25-6.15,3.68,18.81,5.24,36.97,4.75,56.2-.28,11.32-.59,27.72-1.88,38.71-.13,1.11-.24,2.88-1.46,3.26-2.88.89-17.31,0-21.71,0-.29,0-1.77,1.55-1.41,2.35l47.18,57.12-54.74-9.44,1.82,15.04c-10.03,2.61-19.85,6.27-30.1,8.13-8.79,1.6-18.04,1.47-26.47,3.75,8.07,9.85,17.13,18.78,24.93,28.88,10.48,13.56,19.3,28.49,29.69,42.14.62,3.03-9.59,9.63-12.07,12.1-.78.78-1.35.84-1,2.29l67.95,24.08c-5.1,3.85-46.58,21.96-47.19,24.55-.33,1.38.86,1.54,1.56,2.2,4.32,4.07,14.23,8.09,19.07,12.57l.17,1.19c-5.28,11.84-12.27,22.87-21.13,32.31-2.08,2.21-6.88,3.77-6.27,7.88l94.39,13.22c.6.6-3.35,14.1-3.7,16.6-.2,1.42-.67,2.64,1.33,2.28l105.24-53.81c1.67,1.82-21.84,38.73-24.69,42.78-6.22,8.85-12.31,10.84-10,24.48,1.11,6.54,11.74,17.69,18.18,17.69h41.06l-4.65,56.1c5.98,17.67,29.72,10.25,25.41-8.43l-4.32-45.75c-.49-.7.73-1.93,1.03-1.93h39.64c6.99,0,17.36-11.53,18.32-18.49,1.98-14.33-4.54-16.18-11.08-25.57-5.55-7.96-12.1-18.09-16.97-26.45-1.12-1.93-7.61-13.54-6.79-14.44l106.17,53.81c2.07.02-3.97-18.13-3.29-18.89l94.39-13.22c.27-1.47-.15-2.18-.9-3.34-2.53-3.9-9.54-9.41-13.1-14.27-5.15-7.03-8.76-15.09-13.25-22.52l21.58-16.01-47.18-24.55,66.56-24.06c1.21-1.15.15-1.56-.46-2.4-1.57-2.15-12.46-9.42-12.21-11.15,14.66-20.6,27.87-42.13,44.74-61.04,1.58-1.77,11.82-10.4,9.92-12.25ZM587.44,503.4c.55-1.25,3.04-2.65,4.08-4.43,15.06-25.69,32.93-49.43,48.82-74.83,2-3.2,3.59-7.78,5.81-7.81l16.47-27.95,3.63.32c0,3.05-5.59,9.28-7.01,11.86-2.85,5.19-8.8,18.74-12.39,22.56-.96,1.02-2.67.72-3.06,1.15-.49.55-4.4,10.54-6.05,13.31-13.04,21.84-28.8,44.91-43.24,65.31-2.63,3.72-5,8-7.57,11.79l-4.7-3.77c-.08-.61.08-1.28,0-1.89,6.48,0,3.72-2.31,5.2-5.64ZM577.52,575.11l8.69-1.98c10.11-6.17,22.89-8.03,34.05-13.33,1.73-.82,2.69-2.94,4.17-3.38,2.32-.69,5.01.26,7.19-.2.75-.16.67-1.7,1.82-2.15,5.94-2.34,13.17-4.2,18.86-5.63,2.25-.57,5.75-3.76,8.28.23-11,3.03-20.95,8.91-31.42,13.42-6.05,2.6-12.14,4.31-18.37,7.08-7.18,3.19-16.45,6.21-23.79,10.2-1.48.8-1.33,2.65-2.67,3.26-2.3,1.04-8.35,1.05-9.63-1.86.75-1.54,2.36-4.46,2.83-5.66ZM510.47,355.63c.13-1.95.9-9.8,3.81-7.05,3.33,3.14-1.23,80.87,1.89,91.56h-5.66c.06-12.42-.04-24.88-.03-37.32.01-15.36-1.01-31.76,0-47.19ZM440.31,570.29c1.71.71,3.15,1.36,5.07,1.05.63,1.95,2.23,7.2,2.83,8.5l-8.53-1.38c-19.31-9.54-39.02-16.94-58.78-25.23-1.86-.78-10.66-3.16-11.03-3.61-.62-.75-.63-1.96,1.18-1.66,6.73,1.1,12.79,4.23,19.61,4.95,16.21,7.08,33.52,10.67,49.65,17.38ZM364.2,400.03l1.88-.46,28.75,38.74c7.02,11.32,13.77,22.62,20.96,33.83,1.35,2.1,5.85,4.43,5.05,8.59l-13.18-15.6c-12.79-16.82-24.62-34.21-36.05-51.73-2.65-4.06-7.78-7.44-7.41-13.36ZM456.33,630.9c-31.83,5.78-63.81,16.18-93.49,23.54-3.87.96-6.91,3.03-11.85,1.84l.56-2.91c21.65-5.86,43.02-12.56,64.76-18.13,12.01-3.07,25.11-7.37,37.33-9.87,8.67-1.77,18.3-1.57,27.08-3.12,3.16-.56,6.84-2.78,10.5-2.84,1.79-.03,1.23,1.76,2.49,2.26,1.51.6,5.87.59,7.08,1.32.09.09.2.17.29.27.13.26.07,2.69-.02,2.8-.58.73-16.05,2.67-18.4,2.86-9.42.75-16.8.26-26.33,1.99ZM673.11,656.15c-12.58-2.9-24.39-8.55-37.31-9.54-17.38-5.99-35.48-9.31-53.77-12.29-17.25-2.81-35.71-6.94-54.12-6.4-3.76.11-6.5,3.16-5.12-3.05.07-.33,3.67-2.89,3.75-4.45,1.84-.8,3.83-1.08,5.66-1.89-.82,2.04,4.6,3.43,5.42,3.55,13.9,2.13,27.74,3.51,41.26,5.94,28.47,5.11,58.21,12.86,86.22,20.44,3.65.99,15.13,2.36,8,7.69Z" fill="#e3c47d"/><path id="h" d="M673.11,656.15c-12.58-2.9-24.39-8.55-37.31-9.54-17.38-5.99-35.48-9.31-53.77-12.29-17.25-2.81-35.71-6.94-54.12-6.4-3.76.11-6.5,3.16-5.12-3.05.07-.33,3.67-2.89,3.75-4.45,1.84-.8,3.83-1.08,5.66-1.89-.82,2.04,4.6,3.43,5.42,3.55,13.9,2.13,27.74,3.51,41.26,5.94,28.47,5.11,58.21,12.86,86.22,20.44,3.65.99,15.13,2.36,8,7.69ZM493.71,621.67c-1.25-.49-.69-2.29-2.49-2.26-3.66.06-7.33,2.28-10.5,2.84-8.78,1.56-18.42,1.35-27.08,3.12-12.22,2.5-25.32,6.79-37.33,9.87-21.74,5.57-43.11,12.27-64.76,18.13l-.56,2.91c4.94,1.18,7.99-.88,11.85-1.84,29.68-7.37,61.66-17.76,93.49-23.54,9.53-1.73,16.91-1.24,26.33-1.99,2.34-.19,17.81-2.13,18.4-2.86.09-.11.15-2.53.02-2.8-.49-1.01-5.68-.92-7.36-1.58ZM582.24,510.93l4.7,3.77c2.57-3.79,4.94-8.08,7.57-11.79,14.44-20.4,30.2-43.47,43.24-65.31,1.65-2.77,5.56-12.76,6.05-13.31.39-.43,2.1-.13,3.06-1.15,3.59-3.82,9.54-17.37,12.39-22.56,1.42-2.58,7.01-8.81,7.01-11.86l-3.63-.32-16.47,27.95c-2.22.03-3.81,4.61-5.81,7.81-15.89,25.4-33.77,49.13-48.82,74.83-1.04,1.77-3.53,3.18-4.08,4.43-1.48,3.33,1.28,5.64-5.2,5.64.08.61-.08,1.28,0,1.89ZM584.33,582.64c1.34-.61,1.18-2.46,2.67-3.26,7.34-3.99,16.62-7.01,23.79-10.2,6.23-2.77,12.32-4.48,18.37-7.08,10.47-4.5,20.42-10.39,31.42-13.42-2.52-3.99-6.03-.8-8.28-.23-5.69,1.44-12.92,3.3-18.86,5.63-1.15.45-1.07,1.99-1.82,2.15-2.18.46-4.87-.49-7.19.2-1.48.44-2.44,2.55-4.17,3.38-11.16,5.3-23.93,7.16-34.05,13.33l-8.69,1.98c-.47,1.2-2.08,4.13-2.83,5.66,1.28,2.9,7.34,2.9,9.63,1.86ZM514.28,348.58c-2.91-2.75-3.68,5.1-3.81,7.05-1.01,15.43,0,31.83,0,47.19,0,12.44.09,24.9.03,37.33h5.66c-3.12-10.7,1.44-88.42-1.89-91.57ZM371.05,547.96c-1.81-.3-1.8.91-1.18,1.66.37.45,9.17,2.83,11.03,3.61,19.75,8.29,39.47,15.69,58.78,25.23l8.53,1.38c-.61-1.3-2.2-6.55-2.83-8.5-1.93.3-3.37-.34-5.07-1.05-16.13-6.71-33.43-10.29-49.65-17.38-6.81-.73-12.88-3.85-19.61-4.95ZM407.65,465.12l13.18,15.6c.81-4.16-3.7-6.49-5.05-8.59-7.19-11.21-13.94-22.51-20.96-33.83l-28.75-38.74-1.88.46c-.38,5.92,4.76,9.3,7.41,13.36,11.43,17.52,23.26,34.91,36.05,51.73Z" fill="#a88e5b"/><path id="i" d="M582.24,510.93c-.08-.61.08-1.28,0-1.89-2.3-17.02-6.39-40.28-10.66-56.82-.79-3.04-1.58-7.21-4.68-8.54-5.48-2.34-16.45.58-22.84-1.7-28.69,1.86-57.58.17-86.38,1.53-3.76,1.41-4.34,5.39-5.26,8.86-8.87,33.28-17.69,86.26-7.04,118.97.63,1.95,2.23,7.2,2.83,8.5,6.05,12.94,20.85,27.33,33.35,34.14,5.73,3.12,15.77,5.36,19.51,9.28,3.05,3.2,3.43,5.44,3.81,9.88l-.45,68.52c-.88,2.68-4.09,3.69-6.5,4.83-8.56,4.05-28.3,9.31-34.59,14.49-3.27,2.69-2.83,8.44,1.16,10.11,31.01,1.64,62.47.29,93.65.69,5.85-2.41,6.9-7.97,1.4-11.74-7.89-5.42-25.35-9.75-34.88-14.2-.97-.45-4.55-2.34-4.74-3.03v-72.49c.55-4.69,2.64-8.17,6.62-9.91,1.84-.8,3.83-1.08,5.66-1.89,19.05-8.43,33.08-18.51,42.47-37.76.75-1.54,2.36-4.46,2.83-5.66,8.11-20.89,7.52-42.34,4.72-64.18ZM568.81,570.64c-16.04,42.89-69.27,56.81-100.8,21.01-24.29-27.58-20.78-67.44-12.25-100.55.08-.93-.1-1.91,0-2.83.91-8.53,2.75-18.56,4.68-26.94.36-1.57.28-3.27,1.93-4.21.17-1.19-.13-2.56,0-3.78h100.06c.56,7.94,2.52,14.61,2.83,22.66,1.19,1.98,2.1,5.08,2.57,7.34,5.84,27.81,11.17,60.06.98,87.3ZM566.2,506.21c3,22.33,4.76,43.22-3.76,64.68-17.37,43.75-75.06,47.98-97.73,6.13-11.67-21.55-10.41-47.35-6.07-70.76l107.56-.05Z" fill="#7a3543"/></g></svg>