<?xml version="1.0" encoding="UTF-8"?><svg id="a" xmlns="http://www.w3.org/2000/svg" viewBox="0 0 1024 1024"><g id="b"><path id="c" d="M990.42,472.58c-23.47-.06-47.07-3.75-69.6-10.29-4.24-1.23-21.53-6.24-23.78-7.92-3.56-2.67,4.33-19.42,3.21-24.5l-93.33,15.8c-1.17-1.05,8.19-11.8,9.52-13.4,20.59-24.83,46-50.33,64.78-76.02,2.22-3.04,5.31-6.08,4.79-10.24h-39.55c-2.58-55.24-9.08-109.93,3.16-164.53-1.41-1.46-31.34,16.64-35.81,18.75-9.74,4.59-70.45,27.41-76.28,23.72-1.01-.64-6.43-16.36-8.93-18.75-5.29-5.06-5.45.74-7.82,3.19-21.98,22.64-43.09,46.08-67.31,66.42l1.56-131.3-36.35,19.93-4.72-.11c-32.39-32.45-64.14-62.55-87.34-102.62-2.86-4.94-10.08-24.11-14.73-24.84-3.34-.52-2.18,1.35-3.18,3.16-6.43,11.62-11.54,23.98-18.51,35.35-20.87,34.03-51.24,60.65-78.84,88.96l-3.53.5-37.56-20.33,1.56,131.3-73.55-72.74c-5.62,4.46-7.74,22.39-15.61,22.08-9.84-.39-44.03-12.41-54.77-16.6-10.98-4.28-22.84-10.23-33.28-15.76-3.29-1.74-18.38-12.51-20.52-10.31,6.17,31.52,8.78,61.96,7.97,94.19-.48,18.97-.99,46.46-3.15,64.88-.22,1.85-.39,4.82-2.45,5.46-4.83,1.49-29.02,0-36.39,0-.48,0-2.96,2.59-2.37,3.93l79.08,95.73-91.75-15.82,3.05,25.21c-16.82,4.38-33.26,10.5-50.45,13.62-14.74,2.67-30.23,2.47-44.37,6.29,13.52,16.51,28.71,31.48,41.78,48.4,17.57,22.74,32.35,47.75,49.77,70.63,1.03,5.07-16.07,16.14-20.23,20.28-1.31,1.31-2.26,1.41-1.68,3.84l113.9,40.37c-8.56,6.46-78.07,36.81-79.09,41.15-.55,2.31,1.44,2.59,2.61,3.69,7.24,6.82,23.85,13.56,31.96,21.06l.29,2c-8.85,19.84-20.56,38.34-35.42,54.15-3.48,3.71-11.52,6.31-10.52,13.2l158.21,22.16c1.01,1.01-5.61,23.64-6.2,27.83-.34,2.38-1.12,4.42,2.24,3.82l176.39-90.2c2.8,3.05-36.61,64.91-41.39,71.71-10.43,14.83-20.64,18.17-16.75,41.03,1.87,10.97,19.68,29.64,30.47,29.64h68.82l-7.8,94.04c10.02,29.61,49.81,17.19,42.59-14.13l-7.24-76.68c-.81-1.17,1.22-3.23,1.72-3.23h66.45c11.72,0,29.1-19.32,30.71-30.99,3.32-24.01-7.62-27.12-18.57-42.85-9.29-13.35-20.27-30.31-28.44-44.33-1.88-3.23-12.76-22.7-11.37-24.21l177.95,90.19c3.47.03-6.65-30.4-5.52-31.66l158.21-22.16c.45-2.46-.24-3.66-1.5-5.6-4.24-6.54-15.99-15.78-21.96-23.92-8.63-11.78-14.68-25.29-22.2-37.74l36.17-26.84-79.09-41.15,111.56-40.32c2.02-1.92.25-2.62-.78-4.03-2.63-3.61-20.88-15.79-20.47-18.69,24.57-34.53,46.71-70.62,74.98-102.32,2.65-2.97,19.81-17.43,16.63-20.54ZM638.43,490.01c.93-2.09,5.1-4.45,6.84-7.42,25.23-43.07,55.2-82.85,81.83-125.42,3.36-5.37,6.01-13.05,9.74-13.1l27.61-46.84,6.09.54c0,5.12-9.38,15.56-11.75,19.89-4.78,8.7-14.75,31.41-20.77,37.82-1.61,1.71-4.47,1.21-5.12,1.93-.82.92-7.37,17.66-10.14,22.3-21.85,36.6-48.27,75.27-72.47,109.47-4.41,6.23-8.38,13.41-12.68,19.77l-7.88-6.32c-.13-1.03.14-2.14,0-3.16,10.86,0,6.24-3.88,8.71-9.46ZM621.8,610.22l14.56-3.32c16.95-10.35,38.37-13.46,57.07-22.35,2.9-1.38,4.51-4.92,6.99-5.66,3.89-1.15,8.39.43,12.05-.33,1.25-.26,1.13-2.85,3.05-3.6,9.95-3.92,22.07-7.04,31.61-9.44,3.77-.95,9.64-6.31,13.87.39-18.44,5.08-35.11,14.94-52.67,22.49-10.14,4.36-20.34,7.23-30.79,11.87-12.03,5.34-27.58,10.41-39.88,17.1-2.48,1.35-2.23,4.45-4.47,5.47-3.85,1.75-14,1.75-16.15-3.11,1.26-2.57,3.96-7.47,4.75-9.49ZM509.41,242.33c.21-3.27,1.5-16.42,6.38-11.82,5.58,5.27-2.06,135.54,3.17,153.46l-9.49.02c.1-20.83-.07-41.71-.06-62.57.02-25.74-1.69-53.23,0-79.1ZM391.81,602.12c2.86,1.19,5.28,2.27,8.51,1.77,1.06,3.26,3.73,12.07,4.75,14.24l-14.3-2.31c-32.36-15.99-65.41-28.39-98.52-42.29-3.12-1.31-17.87-5.3-18.49-6.05-1.04-1.25-1.05-3.28,1.98-2.78,11.28,1.85,21.45,7.08,32.86,8.3,27.18,11.87,56.18,17.88,83.22,29.12ZM264.24,316.76l3.15-.77,48.19,64.93c11.77,18.97,23.09,37.91,35.13,56.7,2.26,3.52,9.81,7.43,8.46,14.4l-22.09-26.15c-21.44-28.19-41.26-57.34-60.42-86.71-4.44-6.81-13.05-12.47-12.41-22.4ZM418.66,703.71c-53.35,9.69-106.95,27.11-156.7,39.46-6.48,1.61-11.59,5.07-19.87,3.09l.94-4.88c36.29-9.82,72.11-21.06,108.55-30.39,20.13-5.15,42.08-12.35,62.57-16.54,14.53-2.97,30.67-2.62,45.4-5.23,5.3-.94,11.46-4.67,17.6-4.76,3-.05,2.07,2.96,4.17,3.78,2.54,1,9.84.98,11.86,2.21.16.15.33.29.48.44.22.44.12,4.5-.03,4.69-.98,1.22-26.91,4.48-30.84,4.79-15.78,1.25-28.15.43-44.13,3.34ZM782.02,746.05c-21.08-4.87-40.88-14.33-62.53-15.99-29.13-10.04-59.47-15.61-90.12-20.61-28.92-4.72-59.85-11.63-90.71-10.72-6.3.19-10.89,5.3-8.58-5.12.12-.56,6.15-4.85,6.29-7.45,3.08-1.35,6.41-1.8,9.49-3.16-1.37,3.42,7.72,5.74,9.08,5.95,23.29,3.57,46.5,5.88,69.15,9.95,47.71,8.56,97.57,21.56,144.52,34.26,6.11,1.65,25.36,3.95,13.41,12.9Z" fill="#e3c47d"/><path id="d" d="M782.02,746.05c-21.08-4.87-40.88-14.33-62.53-15.99-29.13-10.04-59.47-15.61-90.12-20.61-28.92-4.72-59.85-11.63-90.71-10.72-6.3.19-10.89,5.3-8.58-5.12.12-.56,6.15-4.85,6.29-7.45,3.08-1.35,6.41-1.8,9.49-3.16-1.37,3.42,7.72,5.74,9.08,5.95,23.29,3.57,46.5,5.88,69.15,9.95,47.71,8.56,97.57,21.56,144.52,34.26,6.11,1.65,25.36,3.95,13.41,12.9ZM481.31,688.25c-2.1-.83-1.16-3.83-4.17-3.78-6.14.1-12.29,3.82-17.6,4.76-14.72,2.61-30.87,2.26-45.4,5.23-20.49,4.18-42.44,11.38-62.57,16.54-36.44,9.33-72.26,20.57-108.55,30.39l-.94,4.88c8.28,1.99,13.39-1.48,19.87-3.09,49.75-12.35,103.35-29.77,156.7-39.46,15.97-2.9,28.34-2.08,44.13-3.34,3.93-.31,29.86-3.57,30.84-4.79.15-.18.25-4.25.03-4.69-.83-1.69-9.53-1.54-12.34-2.65ZM629.71,502.63l7.88,6.32c4.3-6.36,8.27-13.54,12.68-19.77,24.2-34.19,50.62-72.87,72.47-109.47,2.77-4.64,9.32-21.38,10.14-22.3.65-.72,3.51-.22,5.12-1.93,6.02-6.41,15.99-29.12,20.77-37.82,2.38-4.33,11.75-14.77,11.75-19.89l-6.09-.54-27.61,46.84c-3.73.05-6.38,7.73-9.74,13.1-26.64,42.57-56.6,82.35-81.83,125.42-1.74,2.97-5.91,5.32-6.84,7.42-2.48,5.58,2.14,9.46-8.71,9.46.14,1.02-.13,2.14,0,3.16ZM633.21,622.82c2.24-1.02,1.99-4.12,4.47-5.47,12.3-6.68,27.86-11.75,39.88-17.1,10.45-4.64,20.65-7.51,30.79-11.87,17.55-7.55,34.23-17.41,52.67-22.49-4.23-6.7-10.11-1.34-13.87-.39-9.54,2.41-21.66,5.53-31.61,9.44-1.92.76-1.8,3.34-3.05,3.6-3.66.77-8.16-.82-12.05.33-2.48.74-4.09,4.28-6.99,5.66-18.7,8.89-40.11,12-57.07,22.35l-14.56,3.32c-.78,2.02-3.49,6.92-4.75,9.49,2.15,4.87,12.3,4.86,16.15,3.11ZM515.79,230.51c-4.88-4.6-6.17,8.55-6.38,11.82-1.69,25.87.02,53.35,0,79.1-.01,20.85.15,41.73.06,62.57l9.49-.02c-5.23-17.92,2.41-148.19-3.17-153.46ZM275.73,564.69c-3.03-.5-3.01,1.53-1.98,2.78.62.75,15.37,4.75,18.49,6.05,33.11,13.9,66.16,26.29,98.52,42.29l14.3,2.31c-1.02-2.17-3.68-10.98-4.75-14.24-3.23.51-5.65-.58-8.51-1.77-27.04-11.24-56.04-17.25-83.22-29.12-11.42-1.22-21.59-6.46-32.86-8.3ZM337.08,425.86l22.09,26.15c1.35-6.97-6.2-10.88-8.46-14.4-12.04-18.79-23.36-37.73-35.13-56.7l-48.19-64.93-3.15.77c-.63,9.93,7.97,15.59,12.41,22.4,19.16,29.37,38.98,58.52,60.42,86.71Z" fill="#a88e5b"/><path id="e" d="M629.71,502.63c-.13-1.03.14-2.14,0-3.16-3.86-28.52-10.71-67.52-17.87-95.24-1.32-5.09-2.65-12.09-7.84-14.31-9.18-3.92-27.57.97-38.28-2.85-48.09,3.11-96.51.28-144.78,2.57-6.3,2.36-7.27,9.03-8.82,14.85-14.86,55.79-29.65,144.58-11.8,199.4,1.06,3.26,3.73,12.07,4.75,14.24,10.14,21.69,34.95,45.81,55.89,57.23,9.6,5.23,26.43,8.98,32.7,15.55,5.12,5.36,5.75,9.12,6.38,16.56l-.75,114.85c-1.48,4.49-6.86,6.19-10.89,8.1-14.35,6.78-47.43,15.6-57.98,24.29-5.48,4.51-4.74,14.14,1.94,16.94,51.98,2.75,104.71.48,156.97,1.16,9.8-4.04,11.56-13.35,2.35-19.68-13.23-9.09-42.48-16.34-58.47-23.79-1.62-.75-7.63-3.92-7.94-5.07l.02-121.5c.89-7.87,4.41-13.69,11.08-16.61,3.08-1.35,6.41-1.8,9.49-3.16,31.94-14.13,55.44-31.02,71.19-63.28,1.26-2.57,3.96-7.47,4.75-9.49,13.59-35.02,12.6-70.96,7.91-107.58ZM607.19,602.72c-26.89,71.89-116.11,95.22-168.95,35.22-40.72-46.23-34.84-113.04-20.53-168.53.13-1.56-.17-3.19,0-4.75,1.53-14.3,4.61-31.1,7.84-45.16.61-2.63.46-5.47,3.23-7.05.28-2-.22-4.29,0-6.34h167.71c.93,13.31,4.22,24.49,4.74,37.98,1.99,3.32,3.51,8.51,4.31,12.3,9.78,46.6,18.72,100.68,1.65,146.32ZM602.83,494.71c5.03,37.43,7.98,72.44-6.3,108.42-29.11,73.32-125.8,80.43-163.81,10.27-19.57-36.11-17.44-79.37-10.18-118.6l180.29-.09Z" fill="#7a3543"/></g></svg>