<?xml version="1.0" encoding="UTF-8"?><svg id="a" xmlns="http://www.w3.org/2000/svg" xmlns:xlink="http://www.w3.org/1999/xlink" viewBox="0 0 1024 1024"><defs><linearGradient id="c" x1="37.48" y1="512" x2="986.52" y2="512" gradientUnits="userSpaceOnUse"><stop offset="0" stop-color="#e3c4a0"/><stop offset="1" stop-color="#e3d47d"/></linearGradient></defs><g id="b"><path id="d" d="M512,68.92c244.71,0,443.08,198.37,443.08,443.08s-198.37,443.08-443.08,443.08S68.92,756.71,68.92,512,267.29,68.92,512,68.92M512,37.48c-64.05,0-126.19,12.55-184.71,37.3-56.51,23.9-107.25,58.11-150.82,101.68-43.57,43.57-77.78,94.31-101.68,150.82-24.75,58.52-37.3,120.67-37.3,184.71s12.55,126.19,37.3,184.71c23.9,56.51,58.11,107.25,101.68,150.82,43.57,43.57,94.31,77.78,150.82,101.68,58.52,24.75,120.67,37.3,184.71,37.3s126.19-12.55,184.71-37.3c56.51-23.9,107.25-58.11,150.82-101.68,43.57-43.57,77.78-94.31,101.68-150.82,24.75-58.52,37.3-120.67,37.3-184.71s-12.55-126.19-37.3-184.71c-23.9-56.51-58.11-107.25-101.68-150.82-43.57-43.57-94.31-77.78-150.82-101.68-58.52-24.75-120.67-37.3-184.71-37.3h0Z" fill="url(#c)"/><path id="e" d="M907.37,481.37c-19.39-.05-38.9-3.1-57.52-8.51-3.5-1.02-17.8-5.16-19.65-6.55-2.95-2.21,3.58-16.05,2.65-20.25l-77.13,13.06c-.97-.87,6.77-9.75,7.87-11.07,17.02-20.52,38.01-41.6,53.54-62.82,1.84-2.51,4.39-5.03,3.96-8.46h-32.69c-2.13-45.65-7.5-90.84,2.61-135.96-1.16-1.21-25.9,13.75-29.6,15.5-8.05,3.8-58.22,22.65-63.04,19.6-.84-.53-5.31-13.52-7.38-15.49-4.37-4.18-4.5.61-6.46,2.63-18.17,18.71-35.61,38.08-55.63,54.89l1.29-108.51-30.04,16.47-3.9-.09c-26.76-26.82-53.01-51.69-72.18-84.8-2.36-4.08-8.33-19.92-12.17-20.53-2.76-.43-1.8,1.11-2.63,2.61-5.32,9.6-9.54,19.82-15.3,29.21-17.25,28.12-42.34,50.12-65.15,73.52l-2.91.41-31.04-16.8,1.29,108.51-60.78-60.12c-4.65,3.69-6.4,18.5-12.9,18.25-8.13-.32-36.39-10.26-45.26-13.72-9.07-3.53-18.88-8.45-27.5-13.03-2.72-1.44-15.19-10.34-16.96-8.52,5.1,26.05,7.25,51.21,6.58,77.84-.39,15.68-.82,38.39-2.6,53.62-.18,1.53-.33,3.98-2.03,4.51-3.99,1.23-23.98,0-30.07,0-.4,0-2.45,2.14-1.96,3.25l65.35,79.11-75.82-13.08,2.52,20.83c-13.9,3.62-27.49,8.68-41.69,11.25-12.18,2.21-24.98,2.04-36.67,5.19,11.18,13.64,23.72,26.02,34.53,40,14.52,18.79,26.73,39.46,41.13,58.37.85,4.19-13.28,13.34-16.72,16.76-1.09,1.08-1.87,1.16-1.39,3.17l94.12,33.36c-7.07,5.34-64.51,30.42-65.36,34-.45,1.91,1.19,2.14,2.16,3.05,5.98,5.64,19.71,11.21,26.41,17.41l.24,1.65c-7.31,16.4-16.99,31.68-29.27,44.75-2.88,3.07-9.52,5.22-8.69,10.91l130.74,18.32c.83.83-4.64,19.53-5.13,23-.28,1.97-.92,3.65,1.85,3.16l145.77-74.54c2.32,2.52-30.25,53.64-34.2,59.26-8.62,12.25-17.06,15.02-13.84,33.91,1.54,9.06,16.26,24.5,25.18,24.5h56.87l-6.45,77.71c8.28,24.47,41.17,14.2,35.2-11.68l-5.98-63.37c-.67-.97,1.01-2.67,1.42-2.67h54.91c9.68,0,24.04-15.97,25.38-25.61,2.74-19.84-6.29-22.41-15.35-35.41-7.68-11.03-16.75-25.05-23.5-36.64-1.55-2.67-10.54-18.76-9.4-20l147.06,74.54c2.87.02-5.49-25.12-4.56-26.16l130.74-18.32c.38-2.04-.2-3.03-1.24-4.63-3.5-5.4-13.22-13.04-18.14-19.77-7.13-9.74-12.13-20.9-18.35-31.19l29.89-22.18-65.36-34,92.19-33.32c1.67-1.59.21-2.17-.64-3.33-2.17-2.98-17.26-13.05-16.91-15.44,20.3-28.53,38.6-58.36,61.96-84.55,2.19-2.46,16.37-14.4,13.74-16.97ZM616.48,495.77c.77-1.73,4.22-3.68,5.65-6.13,20.85-35.59,45.61-68.46,67.63-103.65,2.77-4.43,4.97-10.78,8.05-10.82l22.81-38.71,5.03.44c0,4.23-7.75,12.86-9.71,16.43-3.95,7.19-12.19,25.96-17.16,31.25-1.33,1.41-3.7,1-4.23,1.6-.68.76-6.09,14.6-8.38,18.43-18.06,30.25-39.89,62.21-59.89,90.46-3.64,5.15-6.92,11.08-10.48,16.34l-6.51-5.22c-.11-.85.11-1.77,0-2.61,8.97,0,5.15-3.2,7.2-7.82ZM602.75,595.11l12.04-2.74c14.01-8.55,31.71-11.12,47.16-18.47,2.4-1.14,3.73-4.07,5.78-4.68,3.21-.95,6.94.36,9.96-.28,1.04-.22.93-2.35,2.52-2.98,8.23-3.24,18.24-5.81,26.12-7.8,3.11-.79,7.97-5.21,11.47.32-15.24,4.2-29.02,12.35-43.52,18.58-8.38,3.6-16.81,5.98-25.44,9.81-9.94,4.42-22.79,8.61-32.96,14.13-2.05,1.11-1.84,3.68-3.69,4.52-3.18,1.44-11.57,1.45-13.34-2.57,1.04-2.13,3.28-6.18,3.92-7.84ZM509.87,291.09c.18-2.7,1.24-13.57,5.27-9.76,4.61,4.35-1.71,112.01,2.62,126.82h-7.85c.08-17.2-.06-34.46-.05-51.69.02-21.27-1.4-43.98,0-65.36ZM412.68,588.42c2.36.98,4.36,1.88,7.03,1.46.88,2.7,3.08,9.97,3.92,11.77l-11.82-1.91c-26.74-13.22-54.05-23.46-81.42-34.94-2.58-1.08-14.76-4.38-15.28-5-.86-1.03-.87-2.71,1.64-2.3,9.32,1.53,17.72,5.85,27.16,6.86,22.46,9.81,46.42,14.77,68.77,24.07ZM307.26,352.6l2.6-.64,39.82,53.65c9.72,15.68,19.08,31.33,29.03,46.85,1.86,2.91,8.11,6.14,6.99,11.9l-18.25-21.61c-17.72-23.3-34.1-47.38-49.93-71.66-3.67-5.63-10.78-10.3-10.26-18.51ZM434.87,672.38c-44.09,8.01-88.38,22.41-129.49,32.61-5.36,1.33-9.58,4.19-16.42,2.55l.78-4.04c29.99-8.11,59.59-17.4,89.71-25.11,16.64-4.26,34.77-10.21,51.71-13.66,12.01-2.45,25.35-2.17,37.51-4.32,4.38-.78,9.47-3.86,14.54-3.94,2.48-.04,1.71,2.44,3.44,3.13,2.1.83,8.13.81,9.8,1.82.13.12.28.24.4.37.18.36.1,3.72-.02,3.87-.81,1.01-22.24,3.7-25.48,3.96-13.04,1.04-23.27.36-36.47,2.76ZM735.15,707.36c-17.42-4.02-33.79-11.84-51.67-13.21-24.08-8.3-49.14-12.9-74.48-17.03-23.9-3.9-49.46-9.61-74.96-8.86-5.21.15-9,4.38-7.09-4.23.1-.46,5.09-4.01,5.19-6.16,2.54-1.11,5.3-1.49,7.84-2.61-1.13,2.83,6.38,4.74,7.51,4.92,19.25,2.95,38.42,4.86,57.14,8.22,39.43,7.08,80.63,17.82,119.43,28.31,5.05,1.37,20.96,3.27,11.08,10.66Z" fill="#e3c47d"/><path id="f" d="M735.15,707.36c-17.42-4.02-33.79-11.84-51.67-13.21-24.08-8.3-49.14-12.9-74.48-17.03-23.9-3.9-49.46-9.61-74.96-8.86-5.21.15-9,4.38-7.09-4.23.1-.46,5.09-4.01,5.19-6.16,2.54-1.11,5.3-1.49,7.84-2.61-1.13,2.83,6.38,4.74,7.51,4.92,19.25,2.95,38.42,4.86,57.14,8.22,39.43,7.08,80.63,17.82,119.43,28.31,5.05,1.37,20.96,3.27,11.08,10.66ZM486.65,659.6c-1.73-.68-.96-3.17-3.44-3.13-5.07.08-10.16,3.16-14.54,3.94-12.17,2.15-25.51,1.87-37.51,4.32-16.93,3.46-35.07,9.41-51.71,13.66-30.12,7.71-59.72,17-89.71,25.11l-.78,4.04c6.84,1.64,11.06-1.22,16.42-2.55,41.11-10.2,85.4-24.6,129.49-32.61,13.2-2.4,23.42-1.72,36.47-2.76,3.25-.26,24.68-2.95,25.48-3.96.12-.15.2-3.51.02-3.87-.68-1.4-7.87-1.27-10.2-2.19ZM609.28,506.21l6.51,5.22c3.56-5.25,6.84-11.19,10.48-16.34,20-28.26,41.83-60.22,59.89-90.46,2.29-3.83,7.7-17.67,8.38-18.43.53-.6,2.9-.19,4.23-1.6,4.98-5.29,13.21-24.06,17.16-31.25,1.96-3.58,9.71-12.2,9.71-16.43l-5.03-.44-22.81,38.71c-3.08.04-5.27,6.39-8.05,10.82-22.01,35.18-46.77,68.06-67.63,103.65-1.44,2.46-4.89,4.4-5.65,6.13-2.05,4.61,1.77,7.82-7.2,7.82.11.85-.11,1.77,0,2.61ZM612.17,605.53c1.85-.84,1.64-3.4,3.69-4.52,10.17-5.52,23.02-9.71,32.96-14.13,8.63-3.84,17.07-6.21,25.44-9.81,14.51-6.24,28.29-14.39,43.52-18.58-3.5-5.53-8.35-1.11-11.47-.32-7.88,1.99-17.9,4.57-26.12,7.8-1.59.63-1.49,2.76-2.52,2.98-3.02.64-6.74-.68-9.96.28-2.05.61-3.38,3.54-5.78,4.68-15.45,7.34-33.15,9.91-47.16,18.47l-12.04,2.74c-.65,1.67-2.88,5.72-3.92,7.84,1.78,4.02,10.16,4.01,13.34,2.57ZM515.14,281.32c-4.03-3.8-5.1,7.06-5.27,9.76-1.4,21.38.01,44.09,0,65.36-.01,17.23.13,34.49.05,51.7h7.85c-4.32-14.82,2-122.48-2.62-126.83ZM316.76,557.49c-2.5-.41-2.49,1.27-1.64,2.3.51.62,12.7,3.92,15.28,5,27.36,11.49,54.67,21.73,81.42,34.94l11.82,1.91c-.84-1.8-3.04-9.07-3.92-11.77-2.67.42-4.67-.48-7.03-1.46-22.35-9.29-46.31-14.25-68.77-24.07-9.43-1.01-17.84-5.34-27.16-6.86ZM367.45,442.76l18.25,21.61c1.12-5.76-5.12-8.99-6.99-11.9-9.95-15.52-19.31-31.18-29.03-46.85l-39.82-53.65-2.6.64c-.52,8.21,6.59,12.88,10.26,18.51,15.84,24.27,32.21,48.36,49.93,71.66Z" fill="#a88e5b"/><path id="g" d="M609.28,506.21c-.11-.85.11-1.77,0-2.61-3.19-23.57-8.85-55.8-14.77-78.71-1.09-4.21-2.19-9.99-6.48-11.82-7.59-3.24-22.78.8-31.64-2.36-39.74,2.57-79.76.23-119.65,2.12-5.21,1.95-6.01,7.47-7.29,12.27-12.28,46.1-24.5,119.48-9.75,164.78.88,2.7,3.08,9.97,3.92,11.77,8.38,17.92,28.88,37.86,46.19,47.29,7.93,4.32,21.84,7.42,27.03,12.85,4.23,4.43,4.76,7.53,5.28,13.68l-.62,94.91c-1.22,3.71-5.67,5.12-9,6.69-11.86,5.6-39.19,12.89-47.91,20.07-4.53,3.73-3.91,11.69,1.61,14,42.95,2.27,86.53.4,129.71.96,8.1-3.34,9.55-11.04,1.95-16.26-10.93-7.51-35.11-13.5-48.32-19.66-1.34-.62-6.31-3.24-6.56-4.19l.02-100.4c.74-6.5,3.64-11.31,9.15-13.73,2.54-1.11,5.3-1.49,7.84-2.61,26.39-11.68,45.82-25.63,58.83-52.3,1.04-2.13,3.28-6.18,3.92-7.84,11.23-28.94,10.41-58.64,6.54-88.9ZM590.67,588.92c-22.22,59.41-95.95,78.69-139.62,29.11-33.65-38.21-28.79-93.42-16.96-139.27.11-1.29-.14-2.64,0-3.92,1.26-11.82,3.81-25.7,6.48-37.32.5-2.18.38-4.52,2.67-5.83.23-1.65-.18-3.54,0-5.24h138.6c.77,11,3.48,20.24,3.92,31.38,1.65,2.75,2.9,7.03,3.56,10.17,8.08,38.51,15.47,83.2,1.36,120.92ZM587.06,499.66c4.15,30.93,6.6,59.87-5.21,89.6-24.06,60.59-103.96,66.46-135.37,8.49-16.17-29.84-14.42-65.59-8.41-98.01l148.99-.07Z" fill="#7a3543"/></g></svg>